<svg xmlns="http://www.w3.org/2000/svg" viewBox="0 0 500 500"><defs><style>.cls-1,.cls-13{fill:none;}.cls-2{fill:#9e9e9e;}.cls-3{fill:#ff8700;}.cls-4{fill:#0078d4;}.cls-16,.cls-5{fill:#fff;}.cls-6{fill:#fafafa;}.cls-7{fill:#3a1001;}.cls-8{fill:#00613a;}.cls-9{fill:#b9d6e1;}.cls-10{fill:#f2f2f2;}.cls-11,.cls-21{fill:#111827;}.cls-12{fill:#00357a;}.cls-13{stroke:#f2f2f2;stroke-width:0.75px;}.cls-13,.cls-16,.cls-17,.cls-18,.cls-19,.cls-20,.cls-21,.cls-22{stroke-miterlimit:10;}.cls-14{fill:#7f7481;}.cls-15{fill:#2f2e41;}.cls-16{stroke:#2f2e41;stroke-width:0.32px;}.cls-17{fill:#37150a;}.cls-17,.cls-18,.cls-19,.cls-20,.cls-21,.cls-22{stroke:#111827;}.cls-17,.cls-18,.cls-19{stroke-width:0.15px;}.cls-18{fill:#807582;}.cls-19{fill:#645c65;}.cls-20{fill:#dbdbdb;}.cls-20,.cls-21,.cls-22{stroke-width:0.25px;}.cls-22{fill:#79727e;}</style></defs><title>unasam_escudo</title><g id="Layer_2" data-name="Layer 2"><g id="Layer_7" data-name="Layer 7"><rect class="cls-1" width="500" height="500"/><path class="cls-2" d="M447.67,0V302.33a197.67,197.67,0,1,1-395.34,0V0Z"/><rect class="cls-3" x="98.84" y="46.51" width="151.16" height="162.79" transform="translate(348.84 255.81) rotate(180)"/><rect class="cls-4" x="250" y="46.51" width="151.16" height="162.79" transform="translate(651.16 255.81) rotate(180)"/><path class="cls-4" d="M116.6,372.18A154.77,154.77,0,0,1,98.84,299.9V209.3H250V453.49C192.24,453.49,142,420.57,116.6,372.18Z"/><path class="cls-5" d="M383.4,372.18a154.77,154.77,0,0,0,17.76-72.28V209.3H250V453.49C307.76,453.49,358,420.57,383.4,372.18Z"/><path class="cls-6" d="M250,209.3H401.16V127.85s-7-4.73-8.68-5.44a19.58,19.58,0,0,1-4.63-3.21c-.07-.21-2.49-1.63-2.91-1.42s-3.63-2.14-3.92-2.56-7.9-5.41-8.32-5.91S365,102.83,360.1,105s-15.09,8.33-16.37,8.18-2.78,1.71-4.34,2.21-10.91,5-11.5,5-9.71-3.79-10.78-5.14-7.61-7.12-11.38-6.69-10-1.5-10.75-1.78-4.7-.85-5.48-1.21a46.14,46.14,0,0,0-6.76-1.06c-.29.06-5.2-.08-5.77,1s-2.35.92-2.35,1.85-.49,4.62-1.85,5.62a32.39,32.39,0,0,0-4.41,4.56c-.64.85-2.77,3-3.56,3.77s-4.84,5.34-6.19,5.76-5.05,5.2-5.69,5.34-2.88,2.88-2.88,2.88Z"/><path class="cls-7" d="M401.16,209.3V152.65S326.58,166.89,281.6,209.3Z"/><path class="cls-8" d="M250,149.52V209.3H401.16v-7.58S324,149.24,250,149.52Z"/><path class="cls-9" d="M269.87,131.53c.48,1.23,2.83,2.56,4.43,3.47s1.82.43,1.93,2.56.8,1,1.65.7,1.12-1.34,2.19-1,.11-.75.43-1.87-.16-2.3.58-2.62-.21-3,.32-2.83.7.22.7.81.8-.22.8-.54,2.45-.53,2.24.59-1.23.83-1.76.68-.38,1.35.05,1.13,1.82-.8,2,.06.1,1.12.64,1,1.28-.11,1.17,1-.05,1,.64,1.39,1,.1,1.07,1,.48-.11.8.69.64,1.39.69.59.91-2.08,0-2-.9,0-1-.69.53-.53-.43-1.12a2,2,0,0,1-1.22-1.66c-.22-.85-1.39-2.29-1.18-3s-.59-.48-1-.64.16-1-.48-.85-1.6.74-2.14.48-1.65-.75-1.06-1.28.9-.91,1.12-.75.53-1.12-.11-1.18-1.49.06-1.28-.58.27-.57.48-.77,1.23,0,1.5-.35a1.38,1.38,0,0,0,.26-1.18c-.1-.43-3-2.45-2.83-4.11s-.16-.91-1.38-1.76-1.45-.43-2.41-1-1.17-.48-1.49-1.23a1.81,1.81,0,0,0-1.5-1.23c-.85-.21-1.31-.55-1.23-.64l-.08,0a1.61,1.61,0,0,1-.22.23,32.39,32.39,0,0,0-4.41,4.56c-.64.85-2.77,3-3.56,3.77-.37.37-1.51,1.62-2.73,2.86h0s4.17,4.13,5.4,4.24S269.39,130.3,269.87,131.53Z"/><path class="cls-9" d="M287,111.52s-.9,2.34-.58,2.93A2.84,2.84,0,0,1,287,116a5,5,0,0,0,.64,1.7s1.61-.85,1.77.59.05,1.12.42,1.66.43.58.64.9.32-.1.86.75,1.23,1,1.55,1.82.85.64.64,1.49,0,1.33-.43,1.33-.69-.21-1-.8.32-1.12-.7-1.6-1.35-.1-1.47-.8-.13-2.08-.5-1.49-.59.8-.53,1.33.37.8.26,1.18-.1.32-.21.8a1.45,1.45,0,0,0,0,1c.11.24.35.14,1,.24s.83-.37,1.26.16,1,.38.91,1.61L292,129a1.32,1.32,0,0,1-.22,1.07c-.37.7-.53,1.12-.37,1.28s-.8-.8,1.07,1a26.56,26.56,0,0,1,3.2,3.41,5,5,0,0,1,.59,1.18c.16.48.74.26,1.22,1s.32,1,.64,1.5,1.07,0,1.07.9.37,1.07.48.54.48-.7.38-1.71.05-1.07-.33-1.39-1.76-1.33-1.6-1.81a4.82,4.82,0,0,1,.43-.91s.21-1.39.21-1.55.06-.48.59-.32,1-.05,1.18.43.9.37.9.05-.16-1.28-.37-1.39a2.22,2.22,0,0,1-1-1.17c-.32-.75.43-.7-.32-.75s-.59.38-1-.16-.9-.8-.85-1.23.91-.58.91-.58a6.26,6.26,0,0,1,1.65.1c.27.16-.21-.74.27.16s.59,1.39.91,1.44.37-.1.74.11.48-.27.43-.59.91-.21,1.39-.21.91-.32,1,.05.11.54.32.59.48.54.53.7.48-.49.54.21a5.86,5.86,0,0,1,0,1.07s.32-.38.42.21,1.29.69,1.5,1.07.05.9.37,1a1.66,1.66,0,0,1,1,.53c.11.22.59,0,1.07.59s-.05.8.48,1.12.69-.32.8.37-.27,1.12.38,1.28.74-.26,1.12.27a1.56,1.56,0,0,0,1,.75c.37.11,1,1,.43-.38s-.38-1.17-.8-2-.32-.8-.59-1.12a1.68,1.68,0,0,1-.53-1c-.06-.43.21-.27-.11-.75s.11-.8-.43-.8-.53.32-.85-.32a5.34,5.34,0,0,1-.43-1.17s.32-.43.69-.43H314s1.71-.59,0-.59-1.7,0-2.24-.37,0-.59-1-.75-.91-.27-1.49-.8-.7-.59-1.07-.59a7.19,7.19,0,0,1-1.28-.26s-.43-1-1.12-1.07a5,5,0,0,1-1.71-.52c-.59-.23-.59.18-.91-.58s-.53-1.2-1.12-1.2-1.12.16-1.49-.16a9.26,9.26,0,0,0-1.87-.8l-.75-.37v-1.12a5.66,5.66,0,0,0-1-.16c-.32,0-.27.32-.8-.27s-.91-1.07-1.34-1.12a2.58,2.58,0,0,1-1.22-.53,1.23,1.23,0,0,1-.32-.54,1.69,1.69,0,0,0-.7-.9,1.3,1.3,0,0,1-.58-.75c0-.16.58-3.15.58-3.15s.59-.21.27-.43a12.38,12.38,0,0,0-1.18-.59s-.71.22-.86,0,.06-.42-.31-.53-.48-.28-.53-.44.1-.68-.27-.57,0,0-.37.1-.54-.42-.54-.42-.37-.43-.64-.32-.75-.48-.75-.48h-.53Z"/><path class="cls-9" d="M327.89,120.43h0l-.22-.05h0l-.24.32s3.13,3.7,3.77,4.69.64.57,1.78,2.07,1.14,1.63,1.85,2.49,1.07,1.21,1.71,1.92.21.43,1.42,1.21,1.29.71,1.5,1.28.78.64,1.35.78,1.35.72,1.57.72.92-.22,1.06,0,.29.78.57.92.79.07.79,0a1.73,1.73,0,0,1,1.78.08c.78.56,1.35-.79,1.78-.58s1.13.72,1.13.72l.41,1.26a10.36,10.36,0,0,0,.23-2.12c-.07-.57-.57-1.35,0-.92l.61.42V135s.49-.5.85-.85.57-.43.57-1-.36-1,0-1.78.35-1.85.5-2.06a2.4,2.4,0,0,0,0-.9,1.39,1.39,0,0,0,.34-.5,7.85,7.85,0,0,0,.57-2.24c.11-.89,1.16-1.57,1.1-1.77a3.73,3.73,0,0,1,.56-2.05c.5-.73.07-1.62,0-2.45a19.1,19.1,0,0,1,0-2.52c.07-.52,0-1.2,0-2.19s-.07-.68.4-1.16.15-1.2-.26-3c-.16-.69-.6-.92-.54-1.24s.38-1,0-1l-.86,0a.58.58,0,0,0-.32.07c-3.5,1.89-7.07,3.86-8.89,4.61h0l-.11,0-.18.08-.43.14-.08,0a1.2,1.2,0,0,1-.3,0c-1-.1-2,.91-3.18,1.64a5,5,0,0,1-1.16.57l-.38.14-.54.22c-2.85,1.19-10.06,4.64-10.58,4.64Zm13.35-4.27a16,16,0,0,0,.27,2.4,4,4,0,0,1,.32,1.34c.05.53.38.78.34.89a3.27,3.27,0,0,0-.08.44,21,21,0,0,1,1.07,2.67c.32,1.12,1.55,1.28,1.55,2.13a7.5,7.5,0,0,0,0,2.46,5.86,5.86,0,0,1,0,2.19,15.4,15.4,0,0,1-.8-2.14c0-.32-.15-1.33-.45-1.54a8.52,8.52,0,0,1-1.1-1,3,3,0,0,1-.8-1.73c.05-.27-.07-.11,0-.59s0-.9,0-1.33.13-.38,0-.75a2.72,2.72,0,0,1-.24-1.33c0-.86-.26-2.62-.26-3.1S341.13,115.57,341.24,116.16Zm-8.51,3.47c.12-.13.06.16.06.16a.68.68,0,0,0,.39.64c.4.23.69.2.76.49a1.82,1.82,0,0,1,.07.62v.66a1.42,1.42,0,0,0,.18.79c.15.19-.21.42-.06.63s0,.09-.06.35-.22-1.35-.25-.92c0,0-.29-.19-.31-.15s0,.07,0,0,0,0,0,0-.22-.44-.17-.56a.85.85,0,0,0,0-.66c-.1-.32,0-.25-.14-.48a2.14,2.14,0,0,1-.31-.52,4,4,0,0,0-.13-.64C332.63,119.86,332.6,119.76,332.73,119.63Z"/><path class="cls-10" d="M170.83,78.21s6.53-.41,6.9,3.43a25.86,25.86,0,0,0,1.4,3.21c.18,0-.3,1,2.47,1.88,0,0,2.45.88,2.76,1a9,9,0,0,0,2.11.78,6.71,6.71,0,0,1,2.23.33c.46.24,2.47.83,2.89,1.31a7.57,7.57,0,0,1,2.12.81c.72.5.93.88,1.53,1s2.9.83,3.19.87c0,0,2.28,2.12,2.59,2.42s1.24,1.21,1.55,1.49,1.56,1.43,1.88,1.71,3.49,3.59,3.84,4a20.92,20.92,0,0,1,2.33,3,8.1,8.1,0,0,1,1.8,4.53c.47,3.29,1.06,13.35,1.57,13.84s1.13,3.25,2.17,4.23S220,133.9,219.6,135a11.84,11.84,0,0,1-.3,3.5,7.28,7.28,0,0,1-1.77,3.24c-1.45,1.62-3.19,7.87-1.72,9.89s2.71,6.47,2.37,7.95c0,0,.89,6.31-2.8,8.44,0,0-2.14,1.92-2.69,2.55s-3,.59-3.5.92-2.44.85-2.59,1.11-11.28,3.5-12,3.54-7.64,1.11-8.49,1.29-14.45.74-15.3.44-6.23.15-6.82-.15a8.09,8.09,0,0,0-3.69-.07,6.75,6.75,0,0,1-3.95-.81c-.4-.41-2.54.11-3.17-.26s-4.93-.22-10.44-4.5c0,0-.49-.74-2.31-.74a17,17,0,0,0-2-1.32,16.4,16.4,0,0,1-3.29-2.9c-.05-.35-2.56-3.45-2.85-6s-1.28-3.25-1.18-4.33a33.81,33.81,0,0,0-.84-6.3,38.12,38.12,0,0,1-1-11.4c.54-4.33.74-11.07,1-11.66s1-7.82,1.87-11.26,3.59-10.23,4.57-11.21a54.83,54.83,0,0,0,4.72-6.74c.15-.49,3.4-3.59,6.64-5.11s6.74-3.2,8.17-3.64,2.8-1.92,2.5-2.9.1-4,1.18-4.48,1.26-.76,1.16-2.19,0-1.55.44-1.66,4.21-.48,5-.16a9.16,9.16,0,0,0,3,.35C169.86,78.3,170.83,78.21,170.83,78.21Z"/><path class="cls-11" d="M199.64,166.67v0Z"/><path class="cls-11" d="M196.81,134.17c0,.88.09.69.34,0a1.83,1.83,0,0,0,.11-.71A.76.76,0,0,0,196.81,134.17Z"/><path class="cls-11" d="M197.26,133.36v.1C197.34,133.41,197.37,133.39,197.26,133.36Z"/><path class="cls-11" d="M181.78,124.37c0,.06,0,0,0,0Z"/><path class="cls-11" d="M218.92,136.8a7.34,7.34,0,0,0-.64-.81s-.05-.24-.34,0-.26.11-.4.41,0,.89-.27.28-.11-.54-.32-.81a1.16,1.16,0,0,0-.65-.54c-.28-.08-.4-.07-.43.07s0,.11.31.59.28.43.28.66.15.4-.08.56-.46.27-.48.12.1-.63,0-.81-.11-.62-.32.1.17,1.63-2.48,5.73-4.54,6.41-7.23,7.89-8.59,1.31-8.93,1c0,0,4.5-2.37,5.39-2.66a17.83,17.83,0,0,0,5.94-3.39c2.14-2,3.17-1.44,4.2-6.64,0,0-.12-.21-.32,0a1.94,1.94,0,0,0-.31.54c-.13.27.13.58-.46.69s-.65.46-.74.17a.63.63,0,0,1,.09-.61c.11-.25.17-.32.23-.47s.38-.21-.1-.36-.61,0-.48-.32.17-.19.22-.45,0-.34-.16-.42-.43-.35-.71-.33-.5-.07-.52.09.22.37.16.55-.06.34-.32.21-.39-.63-.59-.46-.35.21-.28.4a2.32,2.32,0,0,1,.22.5c0,.15.22.39-.07.42s-.31-.28-.7,0-.42.47-.27.51.59-.4.86.17.18.83-.19.87-.39,0-1-.79-.94-1.18-1.09-1.15-.46.39-.38.56.16.31.68.66.63-.09.76.48.27,1.2,0,.81.11-.4-.52-.74-.87.1-1.09-.35,0-1.05-.27-.55-.34.68-.1.87.41.14.85.35.65.4.59.57.15.2-.57.07-.66-.09-1.07.11-.59.63-.79.28-.28-.37,0-.7.37-.44.07-.65a1.72,1.72,0,0,0-1.12-.09c-.31.06-.33.61-.54.26s0-.61-.42-.74-1.07-.61-1.27-.05l-.21.55s0,.31,0,.37-.26-.28-.15.2.52.61.43,1a1,1,0,0,1-.65.63c-.22.07-.51-.85-.51-1.29s.11-1.18-.82-.81-.69.62-1.45,1.07-2,.44-1.68,0,1.33-.59,1.38-.7.24-.52-.38-.7-.93-1-1.15-.19-.55.81-.66.59-.19-1.69-.48-.26-.44,1.89-.7,1.41.37-.85-.26-1-.15-.51-.88-.77-.67.7-1,0,.55-.93-.63-.85-2.1-.15-1-.45,1.81-.18,1-.7-.77.7-.77-.51.92-2.21-.3-1.37-.85.89-1.44.63-.95,0-.48-.52-.36-1.15.45-.94,1.44.65,1.18.17-.85-.15-.56-.66.15.33,0-1.07c-.14-1,.18-2.12.07-2.19a5.39,5.39,0,0,1,2.24.21c1.67.39,1.08.05,2,.44a6.89,6.89,0,0,1,1.73.93,2.92,2.92,0,0,0,1.82.69l.45.08c0-.22-.06-.37,0-.47s.39.34.74.64.68.05.93-.3-.69,0-1-.34,0-.59.39-1.08.74.64,1.35.19-.46-.05,0-1,.32-1,.32-1-.73-.69-1-.89a.21.21,0,0,1,0-.38c.05,0,.44.14,1.18.78s.74.68.64,0,0,0-.2-.55-.15-.24-.24-.59,1-.19.54-.45-.4-.38-.84-.82-.1-.4-.1-.73.15-.45.49-.8,0-.34-.39-.24a2.72,2.72,0,0,0-.83.24c-.4.2-.3,0-.74,0s-.1-.54,0-.83.1-.45-.4-.35-.54.79-.73,1.18-.4.49-1.09,0-.14-.59.2-1l.3-.35-.15-.19c-.15-.2-.15-.15-.3-.74s0,0-.59-.15-.29-.15.15-.29.39,0,1.33,0,0,0,0,.54.2.64.2.64l.44-.05c.44,0,.15-.49.39-1.67s.3-.35-1.28-.3,0-.39.4-.83.14-.2-.3-.25-.1-.34-.29-.94-.35-.24-.2-.91-.25.23-1.08.52.29.54.78.79.1.34-.59.64,0,0-.49,0,0,0,0,.64-.14,0-.44,0-.05-.5-.1-1.09,0-.29,0-1,.2-.49.4-.83-.35,0-.84.34,0-.44.44-1.13,1.18-.39,1.92-.54.64-.1,2.61.29.54.3,1.67.84.49.2,1.13.93.44-.05,1.28-.24.05-.49.39-1.87a1.49,1.49,0,0,1,1.13-1.17v.48c0,1,.08,1.33.08,1.7a17,17,0,0,0,.29,2c.08.29.15,1.18.3,1.62s.33,1.7.33,1.7a4.4,4.4,0,0,0,.7,1.1c.37.37,0,.45.74.67a16.11,16.11,0,0,1,1.91.81,1.28,1.28,0,0,0,.82,0c.44-.15.88-.15,1.1-.44s.67-.74.81-1,.15-.59.37-.67.1.15,1-.14a4.27,4.27,0,0,1,1-.19l-.1-.11c-.51-.49-1.1-10.55-1.57-13.84,0-.28-.08-.53-.13-.77,0,0-.41.08-.63-.21a1.89,1.89,0,0,1-.3-.74l-.29-1.33a7.73,7.73,0,0,1-.73-.74,1.18,1.18,0,0,0-.82-.44l-.15.59.29.74s-.07.37-.36.14a7.7,7.7,0,0,1-.82-.81s.23-.59.3-.81.52-1.1-.07-.66-.74.15-1.11.66l-.37.52a2.4,2.4,0,0,1-.81.29c-.3,0-.66-.29-.44-.44s1,0,.73-.37-.59-.74-.07-1,.59-.66.81-.81.44-.67.22-.74-.51.3-.51.3-.59-.3-.81,0-.23.4-.45-.14-.51-1-.51-.53.29-.15,0,.44-.22.23-.3.59.37.45.37.45.37.07.22.37l-.15.29s.08.59-.14.81-.67,0-.67,0-.22-.88-.37-.22,0,.89,0,.89l.37.66a.79.79,0,0,1,.3.59,8.28,8.28,0,0,0,.07.89l.08,1.18s.59-.08,0,.51a1.3,1.3,0,0,0-.52,1.18v2.33a8.94,8.94,0,0,0-1.49-.19c-.77,0-.33.07-.7.3s-.59.29-.92-.34-.29-.33-.74-.48-.48,1-.7,1-.22-.37-.51-.55-.56,1-.78,1.29-.44,0-1.18-.21-.18-.16-.33-.42-.33-.15-1,.19-.26.18-.74-.15-.29-.08-.62.38-.11.06-.89,0a3.34,3.34,0,0,1-1.18-.27c-.81-.22-.26,0-.44.27s-.41.21-1.07.21-.19-.08-.37-1-.22-.37-.48.15-1.33,1.29-1.44,1.12-.13-.39-.43-.45-.35,0-.35,0a7,7,0,0,1-.08-.75,3.53,3.53,0,0,0-.1-.85c-.08-.48-.1-.19-.11-.64s-.11-.41-.26-.85,0,.26-.09.63a7.22,7.22,0,0,0,0,1,5.41,5.41,0,0,1-.21,1.81c-.15.08-.32,0-.6,0s-.21,0-.39-.3-.43-.31-.47-.21a.63.63,0,0,1-.41.32c-.17,0-.29.12-.34-.15s-.41-2-.41-2a1.22,1.22,0,0,1-.67,1c-.94-2.11-5.34-5.16-8.09-6.58s-8.9-.79-11,0a15.59,15.59,0,0,0-4.28,3,3.8,3.8,0,0,1,1.5-.84,15.51,15.51,0,0,1,18,7c.88,1.92.07.37.44,1.55s0,.89,0,1.85-.15,1.18-.15,2.38a2.15,2.15,0,0,1-.88,2c-.45.37-2.07,2-2.07,2a8.39,8.39,0,0,1,.59-1.48c.44-.88.15-.51.37-1.32a3.65,3.65,0,0,0,.15-1.48c0-.66-.15-1.11-.15-1.77s.3-.81-.07-1.47-.37-.15-.37-.37.07-.81.29-.45.59.15.62-.36a1.7,1.7,0,0,0-.4-1.33c-.36-.44-.59.07-1.32,0s0,0,0-.59,0,0-.59-.74,0,0-.37-.52,0,0-.3,0-.29-.07-.37-.88-.36-.15-.81-.89-.44-.66-.88-.73-.81,0-.81-.59-.67-.23-1-.23-.51.15-.73.52-.82.37-1.33-.15,0,0-.89.15.22-1-.51-1.47-.59-.08-.89-.66-.15.66-.51.8-.67.59-1-.37,0,0-.73-.22-.6.89-1.55.74-.08.89-1.26.66-1-.22-1,.37-.84.74-1.14.89-.05.26.21.43,0,.18,0,.7.75,0,.76.37-.14.33-.59.34-.28,0-.66-.28-.33,0-.44,0a7.8,7.8,0,0,0-.76.66c-.1.09.19.05.65.1s.18.24.11.62-.43-.24-.42.37.23.25.38.51.12.59-.27.9-.16,0-.75.17-.12.43-.16.69a.66.66,0,0,0,.14.58c.14.23-.07.32-.2.49s0,.16.28.39.22.15.19.65-.78.45-.78.59a1.89,1.89,0,0,1,.2,1.09c-.1.68.1.54-.15,1s-.64.1-.88.24.44.35.49.55-.15.39-.59,1.08-.74,1-1.23,1.72a3.66,3.66,0,0,1-1.87,1.42h-.69c-.67-2.22-1.36-6.1-1.52-6.85-.22-1,.22-.81.59-1.84.15-.43-.24-.69-.76-.86-.09-.59-.43-1.4,0-1.25s.44.54.79.54.39-.19.78-.56.79-.38.64-.82a.91.91,0,0,1,.54-1c.15,0,.2-.18,0-.53s-.38-.44.13-.68.61-.05.91-.25.19-.15.44-.88.29-1.28.59-1.43.39-.44.54-.64.1.49.74-.25-.05.4.83-.93a14.56,14.56,0,0,0,1-1.77c.29-.49,1.08-.64.59-.89s-.45.1-.5-.24-.14-.64.25-.64a2,2,0,0,1,1.43.74c.59.59.64.93.64,0s.29-1.23,0-1.09-.4.23-.79,0-.84-.51-.49-.56a1.36,1.36,0,0,1,.88,0,4.1,4.1,0,0,0,1,.15,1.45,1.45,0,0,1,.11-.22c.35-.57,7.23-3.32,15.44,1.84a21.38,21.38,0,0,1,5.86,5.17,23.1,23.1,0,0,1-2.12-3.18c-.16-.63-6.31-4.37-7.34-4.52,0,0-3.61-1.29-5.27-1.22,0,0-.15-.47-1-.92s-.81-.44-1.4-.44A2.2,2.2,0,0,1,166,101c-.18-.11.41-.44.52-.48s-.07.11.78-.26a12.52,12.52,0,0,1,13.57,2.62l0-.41s-3.16-6-13.73-3.17c0,0-3.44,1.13-4.67,3.59,0,0-.79.49-1.52.84a1.57,1.57,0,0,1-1.13.19c-.25,0-1,.4-.64-.34s.19-1.82.78-1.13.89.29.84,0-.79-.59-.3-.93,1.13-.74,1.18-.4,0,0,.79-.59.94-.29,1.38-.88.19-.45.44-1.43.3-1.13.84-1.47,1.27-1,1.27-.54-.24,1,.79.24.39-1.62,1-.74.74,1.13,1,.45.59-1.23.54-.59.19.09.44.09.34-.81.64-.38.73-.35.73-.35,5.47-1.23,12.15,4.37V98.12s-6.54-3-7.27-3.36-19.83-5.42-27.1,21.95a7.51,7.51,0,0,1-1.19.26c-.26,0-.19-.15-.26-.33s.59-.63.74-1-.08-.33-.33-.44-.12-.3-.08-.63a6.28,6.28,0,0,0,.08-1c0-.44.55-.33.73-.66s0-.23,0-.23l-.33-.07c-.33-.07.07-.44.37-.65s.44-.75.11-.75-.85,1.25-1.4.52.92-.67.92-.67l.26-.59c2,.55,1.7-1.36,1.36-1.84s0-.26,0-.45,0-.22.67-.4,0-.26.07-.59.59-.3.92-.55,0,0-.84-.08,0,0,.36-.85,0-.37.37-1,.59.45,1.07.26-.4-.18-.74-.48.12-.22,1.22-.55-.15-.37,0-.41.7,0,.78-.25-.3-.37-1-.41-.7-.15-.74-.42,1,0,1.77-.06.59.15,1,0-.26-.63-.85-1-1.14.22-.4-.81,1,.29,1.06.4.52.33.56-.18.18-.78.18-1-.74.11-1.14,0-.11-.45,0-.71,1.33.82,1.33,0,.51-.62.88-.55,1.1-.55,1.17-.66a4.23,4.23,0,0,0,.15-.8c0-.17.44.12.51.61s.3-.09.37-.29a1.15,1.15,0,0,0,.05-.62c0-.24-.39,0-.54-.12a.58.58,0,0,1-.27-.52c0-.22.25-.34.54-.24s0,.15.07.37.35.27.72.14.34,0,.56,0a3,3,0,0,0,1-.56c.56-.37-.08-.47-.84-.39a2.07,2.07,0,0,1-1.2-.2c2.5-2.8.44.81,1.91-.74s1.33,3,1.85-.15,1.1,1.41,1.32-.66,0,1.7.89-.15,2,2.22,1.84-.51.82.51,1-1,1.25.37,1.47-.51,4.81-.22,4.81-.22c4.44-.15,13,4.42,13,4.42-3.54-3.17-7.41-3.61-8.81-4.35s-2.81-.52-4-.89-2.8.19-4.57.26a15.16,15.16,0,0,0-4.13.56,23.68,23.68,0,0,0-2.81.81c-1.1.44-.59.51-1.73,1.07s-.59.29-1.11.55-.59,0-1.29,0-.29-.41-.51-.7.18-.33.22-.44.37-.33,1.29-.7,0-.26-.18-.48-.37-.11-.41-.37,0,0,.22-.59,0,0,.7,0a4,4,0,0,1,1.26.15c.55.07,0,0,.29.55s0,.48.19.48.18-.18.22-.4.7-.08,1-.3,0-.29-.48-.52a8.78,8.78,0,0,0-1.63-.48c-.62-.14,0-.25,0-.25a.86.86,0,0,1,.44-.08,10.87,10.87,0,0,0,2.36,0c1.33-.11,1,.08,1.66.38s.66,0,1.84,0,.7-.18,1.48-.33,1.1.33,1.77,0,4.5-.26,4.5-.26a12.81,12.81,0,0,1,4.24-1.81c-.74-.18-2.18.48-3.39.85s-1,.48-1.65.63a19.63,19.63,0,0,1-3.44.07c-2.14,0-2.59-.11-3.1-.11s-.89,0-.89-.29.37-.33.45-.63a2,2,0,0,0-.08-1.22c-.18-.59-.15-.11-.29-.14s-.37-.26-.37-1.18-.19,0-.19,0a1.15,1.15,0,0,0-.48.62c-.18.48,0,.22-.51-.37s-.08.34-.11.63-.11.22-.11.22l-.67-.66c-.48-.48-.18.07-.22.18a.59.59,0,0,1-.29.41c-.22.11-.63-.08-.85.18s-.19.37-.19.37h-.51c.92-3.54,14.75-3.24,14.75-3.24-3.36-1.18-13.06-.45-13.61-.39s-.26-.2-.37-.5,0-.15,0-.52.08-.29,0-.59-.22,0-.41.12a.91.91,0,0,1-.62.14,7,7,0,0,0-.85.11s-.26-.22-.19-.44,0,0,.76-.18.57-.41,1.2-.81.37,0,.92-.19a10.61,10.61,0,0,0,1-.37c.56-.18.85.11,1.48.15a5.14,5.14,0,0,0,1.22,0c.25,0,.11-.26,0-.26a1.44,1.44,0,0,1-.85-.36c-.45-.34-1,0-1.77-.12a6.68,6.68,0,0,0-1.37-.14,2.22,2.22,0,0,1-.59-.08c-.26,0-.37-.22-.55-.44a2.25,2.25,0,0,1-.16-.92c-.53,0-.93.1-1.06.13-.44.11-.54.24-.44,1.66S161.06,81.6,160,82a1.43,1.43,0,0,0-.67.75h0l0,.08-.07.15,0,.09-.06.15,0,.1a1.42,1.42,0,0,0-.05.16l0,0h0a6.65,6.65,0,0,0-.2,3c.26.85-.75,2.08-2,2.68h0l-.26.12h0l-.27.1-.19.06h0c-1.53.52-4.87,2.12-8,3.58s-6.49,4.62-6.64,5.11a54.83,54.83,0,0,1-4.72,6.74c-1,1-3.68,7.77-4.57,11.21s-1.62,10.67-1.87,11.26-.44,7.33-1,11.66a38.12,38.12,0,0,0,1,11.4,33.81,33.81,0,0,1,.84,6.3c-.1,1.08.88,1.77,1.18,4.33s2.8,5.65,2.85,6a16.4,16.4,0,0,0,3.29,2.9,17,17,0,0,1,2,1.32c1.82,0,2.31.74,2.31.74,5.51,4.28,9.81,4.13,10.44,4.5s2.77-.15,3.17.26a6.83,6.83,0,0,0,3.95.81,8.09,8.09,0,0,1,3.69.07c.59.3,6-.14,6.82.15s14.46-.26,15.3-.44,7.79-1.25,8.49-1.29,11.84-3.28,12-3.54,2.07-.78,2.59-1.11a6.52,6.52,0,0,1,1.74-.35,2,2,0,0,0,1-1.33,6.2,6.2,0,0,0,.42-2.41,20,20,0,0,1-.33-3.08c0-.54.06-2.31-.22-2.25s-.39.59-.63.11-.64-.52-.46-.74a4.32,4.32,0,0,1,.46-.44,2.61,2.61,0,0,0-.57-.24,1.65,1.65,0,0,1-1-.85c-.13-.29-.09-.46-.46-.77s-.37-.3-.4-.46-.13-.23,0-.32,0-.31-.24-.4-.65.05-.55-.17a12.88,12.88,0,0,1,2-1.75,8.16,8.16,0,0,0,1.29-1.26c.15-.18,2.73,2.88,3.43,7.2a17.32,17.32,0,0,1-.71,5.87,9.16,9.16,0,0,1-1.45,2.86l2.79-2.62a4.08,4.08,0,0,1,.15-1.06,1.7,1.7,0,0,0,.23-.6.84.84,0,0,1,0-.53,2.21,2.21,0,0,0,.37-.83,6,6,0,0,1,.09-.68c.07-.22.15-.38.16-.46s.06-2.09,0-2.33a6.62,6.62,0,0,1-.34-.8,13,13,0,0,0-.64-1.54,12.29,12.29,0,0,0-.66-1.73c-.29-.45-.69-1.42-1.05-1.9a16.86,16.86,0,0,1-1.39-2c-.1-.31-.11-.36.23-1.12s.61-1.46.68-1.67.78-2.3,1.07-2.07.31.15.52.54a5.88,5.88,0,0,0,.53.8,9.89,9.89,0,0,1,.1-2.62,17.5,17.5,0,0,1,.81-3.2c.26-.48.65-2.31,1.95-3.32a1.37,1.37,0,0,1-.07-.81c.07-.55.2-1,.33-1.74a2.22,2.22,0,0,1,.45-1.12C219,137.09,219.23,137.24,218.92,136.8Zm-48.42-3a3.25,3.25,0,0,1-1.26-.09c-.46-.13-.49-.3-.86-.32a3.06,3.06,0,0,1-1.13-.1c-.34-.17.1-.42-.39-.4s-.44.4-.76.45-.82-.45-.82-.45,0-.14-.63-.12a5.49,5.49,0,0,0-1.73.2,2.6,2.6,0,0,1-1.13.19,13,13,0,0,1-1.69,0c-.74,0-1,0-1.6,0s-.79-.34-.62-.07.1,0,.54.34.42.34.55.57.07.17.41.36.62.47,1.11.35.79-.3.93-.07.27.22.18.49-7.33,4.13-7.77,8.18a12.78,12.78,0,0,0,.34,9.1,17.25,17.25,0,0,0,6.67,6.92c-.21.06-.36.53-.82.88s-3.76,2.21-5.16,2.36-.52-.45-.15-1,1.88-1.22,1.85-1.48a2.16,2.16,0,0,1,.11-1.33c.25-.7,0,0,.37-.36s0-.56-.56-1.11-.26.29-.44.52-.3,0-.41-.82-.33,0-.51,0-.19-.25-.08-.84-.29,0-.48.22-.22,0-.22-.26.15-.3.34-.59-.08-.26-.23-.37-.4-.07-.59.63-.22.07-.55,0-.18-.11-.18-.59a1.67,1.67,0,0,0-.23-.92c-.14-.34-.22.4-.66.4s-.18-.26.3-.88-.11-.56-.48-1.22.59-.33.37-1-.15-.51-.59-.51-.82.55-1.59,0,1.24-.86,1.56-1.07-.15-.19-.44-.77.06-.33.24-1-.23-.32-.23-.79.62-.11.3-.44a1.65,1.65,0,0,1-.51-.68c-.23-.48.38-.31.49-.42s0-.21,0-1,.16-.06,1.06-.06-.07-.19-.45-.73a4.42,4.42,0,0,1-.46-.86c-.22-.37-.52.16-1,.09s-.27-.42-.21-.53a2.13,2.13,0,0,1,.86-.4c.38-.11,1.09-.69,1-.93s-.41,0-.56-.12.24-.29.47-.47-.09-.2-.45-.21-.36-.21-.4-.44.05-.19.42-.37.23-.31.36-.59-.13-.3-.51-.41-.08-.19.13-.51.39-.05.49.17a1.79,1.79,0,0,0,.51.58c.3.27.16.07.56.35s.32.06.41.06.45-.2.19-.28-1.62-.18-1.07-1.4.52.29,1,.26,0-.92,1.06-2.1,0,0,.08.36,1,.52,1.33,0-.15-.44-.3-1.25c0,0,1.11,1.11,1.26.89s-.37-.89-.23-1.63-.07-.44-.22-1.77-.37.67-.59-.14-.59.59-1,0,0-.82.52-1.26-.07-.51-1.33-1.18.44-1.11-.37-1.34c-.12,0-.26-.25-.41-.58a7.07,7.07,0,0,0,5.17-5.64c.41-2.18,1.22-2.06,1.22-2.06-1.15,6.74,4,8.63,6.27,9a21.61,21.61,0,0,0,6.07-.32c4.77-.34,6.34-3.29,6.49-3.69s.84-.1.69-.34.25-.44.44-.84.1-.49.94-.29c.47.11.55.3.56.38a.23.23,0,0,1,0-.09c.14-.34-.05-.54,0-1.13s.83.1,1.62.25.54.34.54.49.44.15.44.59-.59.44-1.13,1a1,1,0,0,0-.19,1.18,12.19,12.19,0,0,1,1.47-1.18,6.33,6.33,0,0,1,1.62-.69,11.57,11.57,0,0,1,2.41-.14c1.18-.1.35-.4,1.43-.1s0,0,.93.39.25,0,.69-.74.44.25.79,1.28a8.36,8.36,0,0,0,.44,1.23c.35.84.69,1,0,1.29s-.15.24-.79-.94-.83-.74-1.77-1.28-1.77-.1-3.29-.3a2.44,2.44,0,0,0-2,.29c-.3.11,0,.88-.18,1.4s-.36.27-.59.76.22.07.22.42,0,.35.27.39.1-.21.35-.56.08.11.37.56.33-.37.59-.48.08.16-.13.71-.37.17-.81.41-.64.28-.81.48.11.39.37.35a6.42,6.42,0,0,0,1.73-1c.37-.34.29-.16.62.1s.3.44.49.69.42.61.42.61-.16.42.72.42H189a1.27,1.27,0,0,0-.25.31c-.67,1-.63,1-1.15.59s-.57-.15-.69,0-.25,0-.49,0c-1.25.07-1.14.18-1-.26s-.25-.33-.25-.33-6.13,2.21-5,11c0,0-1.57-.85-1.43-1.25s.09-.33.27-.49.42-.26,0-.26-.66.15-.8.07-.12,0-.08-.26,0-.27.18-.4a.82.82,0,0,0,.33-.46c0-.18.08-.22-.22-.27s-.28.17-.4-.13a1.36,1.36,0,0,1-.16-.53c0-.13.28-.18-.2-.28s-.61.19-.59-.18,0-.42.2-.59.57-.37.22-.47-.4,0-.52-.18-.06-.18-.32-.16-.16-.05-.32-.09-.42.1-.33-.18.1-.26.42-.31.58-.11.53-.26-.15-.21-.09-.44.07-.67.37-.38a1.23,1.23,0,0,1,.49.91c0,.38-.2.48.09.68s.28.51.37-.13.06-.71-.08-1a7.48,7.48,0,0,1-.43-1.27c-.1-.45-.05-.57-.47-.67a1.57,1.57,0,0,0-1-.05c-.32.1-.34.52-.8.57s-.41.27-.46.05-.37-.57-.55-.35-.06.67-.46.62-.29-.15-.59-.35-.27-.29-.51-.32-.13.2-.45.47-.44.15-.59-.15-.07-.14-.44.1S171.43,133.77,170.5,133.77Zm40.36,33.84c0-.25-.05-.37-.09-.3-.22.44-.44.37-1,.52a15.75,15.75,0,0,1-1.62.37c-.59.07-.15.66-.52.59s-.3-1-1.18-.89-.3.3-1.55.15-1,0-1.77-.3-.07-.81-.52-.66-.29.81-.59,1.11-.37.59-.51.36a2.31,2.31,0,0,0-.91-.73,3,3,0,0,1-.93-1.16c.09.19.67,1.42.88,1.89s-.3.89-.59,1.41-.44-.3-.67-1.18-.36.59-.88.51,0,0-.52-.37-.29.37-.51.82-.81.66-1.7.95.22-.81.52-1.69-1,1-1.7,1.1a1.92,1.92,0,0,1-2.14-.81c-.66-.88-.29,1.33-.29,1.33s-.23.74-.89.66,0,0,0-1.32,0,0-.76-.45-.42.15-.2.45a.69.69,0,0,1,0,1c-.29.29-.15.81-.51.81s0,0-.82-.52-.37-.29-.37-.88-.07-.59-.59-.67-.07.37-.07.37a1.14,1.14,0,0,1,0,.74c-.15.29-2.58-.08-3-.08s0,0-.67-.14,0,0-.22-.45a6.26,6.26,0,0,0-.37-.66v2s-.88-.74-1-.51-.36.51-.51-.15,0-1.11-.37-1-.3,1.1-.59,1.84,0,0-.81-.59-.37,0-.81.37-.45.29-1.18-.44-.15.59-.37.81-.52-.08-.81-1.16-1.77.57-2.72,0-1,.14-1.86,0-.51-.15-1-1.7a3.65,3.65,0,0,0-.38-1.06c1.88-1.19,7.37-5,10-10,0,0,3.37,2.28,10.13,1.91,0,0,10.75.11,13-.77a17.16,17.16,0,0,0,2.29-.7C206.75,158.09,210.66,161.49,210.86,167.61Z"/><path class="cls-11" d="M163,104.71h-.11C162.79,104.94,163.09,104.71,163,104.71Z"/><path class="cls-11" d="M183.75,104.86a1.11,1.11,0,0,0,.57.91c.59.37.59.32.88.91s1.08.27.39,1.2-.86,1.4-1,1.13-.77-.07-.84-.88a13,13,0,0,1-.25-1.53C183.53,106,183.55,104.93,183.75,104.86Z"/><path class="cls-11" d="M198.16,103.29a1.74,1.74,0,0,0,0,1.57c.4,1,.81.9.92,1.67s.33-.18.33-.88.22-.63-.18-1.37a2.33,2.33,0,0,0-1.25-1"/><path class="cls-10" d="M170.55,147a6.14,6.14,0,0,1,1.62,2,7.51,7.51,0,0,0,1.67,2.26c.64.74,1.61,1.13,1.59,1.53s-4.15,8.35-13,11.21c0,0-4.62,2.16-7.23,1.72a2,2,0,0,1,0-.84c.1-.44,1-.83,1.48-1a9,9,0,0,0,1.92-.59,12.65,12.65,0,0,0,2.31-1.77c.44-.4.44-1.08.83-.74s.49-1.28.79-.93.2.39.3,1,.14-.1.68-.79a7.17,7.17,0,0,0,.79-1.33c.44-.73.39-1.77.64-.95s.34,1,.54.36-.15-1.51.39-1.81a2.84,2.84,0,0,0,1-1c.29-.39.1-.54.49-.74s.64.2.64-.44,1.67-3.15,1.82-4.13S170.55,147,170.55,147Z"/><path class="cls-10" d="M176,153.55s-.26.34,1.07,1.22,2,1.85,2.51,2.07,1.14.55,1.14.55,0,1.36-3.13,4.54-6.86,5.38-10.41,6-7.51.39-8.05,0-.22-.49.13-.59.66,0,.49-.24-.27-.2-.35-.35-.49-.12-.1-.37.13-.59,1.06-.22.76.76,1.08.3.27-1,.47-1.06.1.27.34.66-.07.44.52.52,1.08.52.94-.08-1.46-.49-.86-.93,1.27-1.08,1.49-.37.42.71.72,0,.07-1.87.54-1,.69,1.36.71.61-.71-1.69,0-1.23.2.91.71.47.67-.66,1-.79.54-.05.74-.46.07-.77.29-.67-.2.56.44.37,3.08-1.57,2.71-1.94-.76-.81-.25-.91a1.66,1.66,0,0,0,1.45-1c.4-.79,0-1.11.4-1.33s.73-.29.76-.61a2.53,2.53,0,0,1,.59-1.58c.44-.34.52,0,.52-.76s.18-1.15.27-1S176,153.55,176,153.55Z"/><path class="cls-10" d="M169.81,145.38a41.68,41.68,0,0,1-1.92,4.82c-.39.39-.79-.4-.79-.4a.52.52,0,0,1,.4.79c-.3.69.43,1.14-.3.69s-1.2-.57-1-1.23.29-.18.52-1,.7-1.62.29-1.25-.26.59-.55.92-.56,0-.7.37,0,.51-.46.48-.83-.7-.54-.92.81.13,1.07-.27-.21-.36-.53-.62-.67-.33-.64-.59-.05-.7-.23-.26.18.74-.19,1.07-.62.63-.59,0-.18.33-.29-.82-.37-.95-.11-1.14.33.3.44.22.19-.26.44-.44.15.07.52-.22.37-.08.48-.59-.25-1.48.17-1,.53.92.71.66.13-.59.45-.59.29-.29.77,0,.85.11,1.26.55S169.89,145.15,169.81,145.38Z"/><path class="cls-10" d="M165.89,153s1,0,.37,1-3,4.06-3.47,4.06-1.25.29-1.51,0-1.22-.93-1.55-1.37-.48-.46-.56-1.09.45-1.05,0-1.23-.51.11-.66.37-.63,0-.63,0,.08-.11,0-.63-.25-.7-.4-.4-.15-.31-.59-.23-1.4-1.63-1.48-1.94-.37-.49-.51-.89-.26-.41,0-.67.22-.55,0-.62-.4-.11-.44-.59.07-.88,0-1,.22-.13.33,0,.55-.28.39-.36a2.13,2.13,0,0,1-.46-.37,2.84,2.84,0,0,1-.27-.66c-.06-.3-.42-.44,0-.74a1.23,1.23,0,0,0,.49-1.07c0-.33.07-.88.24-1l.17-.11v-1.11s.22-1.26.36-1.26,3.88-4.86,6.68-5.27c0,0,0,.55.3.52s.59-.45.95-.52,5.08-.74,8,1.11,3.92,2.47,5.61,5.05a32.65,32.65,0,0,0,4.8,5.94,14.79,14.79,0,0,0,5,2.62c2.36.51,5.43,1.77,9.08,1.66s5,1.29,11.1-2.22a25.56,25.56,0,0,0,5.53-5.82c3.13-4.25,3.21-5.79,3.36-6s.29-.18.4.22,0,.7-.44,2.33-1.26,3.54-1.62,4.57-2.73,9.15-5.79,11a2.69,2.69,0,0,1-1,.07c-.29-.11-.48-.27-.71-.33a1,1,0,0,1-.5-.28c-.11-.12-.29,0-.41-.32s-.17-.38-.12-.52.19-.37.32-.16,0,.19.19.37.16.35.36.43a.83.83,0,0,0,.48.13c.18,0,.5-.13.29-.28s-.54-.16-.67-.47-.39-.28-.17-.66,0-.08.37-.46.54-.62.5-.93,0-.61-.58-.78-.31-.33-.56-.17-.27.41-.45.55.06.18-.39.18-.58-.13-.6.09.29.33.33.52.18,0-.2.46-.32.53-.44.46a.93.93,0,0,1-.22-.16c-.14-.13.22-.32-.44-.41a7.12,7.12,0,0,0-.86-.08.23.23,0,0,0-.24.27c0,.21.08.45.09.66s-.79.47-.92.44.11.41-.15.43,0-.23-.54-.19-.92-.1-1,0,.13.21-.33.17-.42-.38-.45,0-.82.36-1.12.2-.22.11-.51-.31-.08-.65-.35-.53-.09.14-.37.22-.24.24-.54.07-.46-.46-.63-.31-.33-.06-.44.29,0,.25-.15.42,0,.21-.23.26-.31.05-.36-.21.23-.3-.16-.36-.65-.09-1-.12-.48-.11-.69-.1-.67,0-.45.3.72.24.77.58a.7.7,0,0,1-.14.57c-.08.16-.24.24-.14.32s.45.16.52-.06,0-.26.11-.39.14,0,.23-.27.1-.36.15-.37.18-.33.27,0,.21.4.1.63,0,.19-.22.41,0,.18-.36.42-.23.47-.89.4-1.16.08-1.23-.23-.22-.41.09-.64.54-.37.6-.43.05-.09-.35-.21-.66.2-.61-.18.43-.43.09-.56-.32-.11-.48-.27-.18-.16-.18-.24.23-.27,0-.42-.17-.32-.5-.12-.9.29-1,.55-.48.3-.63.52a.89.89,0,0,1-.75.31c-.33,0-.8-.15-.65-.3s.24-.14.33-.29-.09,0-.18-.35-.2-.22-.28-.46-.2-.46-.4-.35a.3.3,0,0,0-.09.46c.09.09.53.13.29.31s-.53.13-.53.3.2,0,.25.26-.11.4-.27.4-.1-.13-.39.19-.5.53-.75.42-.58-.53-.3-.65.5-.33.2-.33-.83-.22-.75-.29.22,0,.31-.35.17-1-.06-1.07-.72-.13-.75,0,.13.33-.08.36a1.3,1.3,0,0,0-.31.06c-.22.07.06.42-.55.37s-.78,0-.91-.13-.35-.39.1-.48a2.87,2.87,0,0,0,.84-.2c.54-.21.52-.17.72-.35s.5-1.15.1-.85-.37.57-.59.46-.08-.63-.43-.46-.4.09-.44.48-.06.64-.26.5-.11-.3-.5-.5-.48.09-.51-.28-.17-.26,0-.5a1.77,1.77,0,0,0,.16-.9c0-.31.1-.93-.32-.71s-.64.84-1.3.22-1-.59-1-.95.72-.91,0-.89-.74.47-.89-.34-.64-.94-.64-.94a.48.48,0,0,0-.54-.32c-.44,0-.55.08-.73-.4s.47-.93-.08-1.26a3.46,3.46,0,0,0-.55-.33c-.52-.26-1.42-.44-1.19-.7s.78,0,.93,0,.52-.48-.22-.77-1,0-1-.56.18-1.25-.34-1.73a6,6,0,0,1-1.14-1.18c-.37-.55-.48-.78-.48-1s-.33-.33-.55-.07-.44.59-.63.33.89-.18-.18-.26-1.15.34-1.33,0,.11-.52-.19-.63a1.82,1.82,0,0,1-.55-.26c-.29-.18-.18-.77-.59-.37s-.48.3-1.18.41-.74.77-1.14.85-.52.4-.7,0,.07-.37-.26-.67-.41-.62-.55,0,.07.89-.19.81-.37-.07-.44-.55.44-.74-.07-.48-.08.3-.89.52-.63.48-.33.48.33-.08.26.26-.67.29-.56.66.11.63.3.44a4.58,4.58,0,0,0,.55-.66c.11-.19.41-.78.52-.3s-.15.59-.26.92a.9.9,0,0,0,.07.85c.19.37.22.39-.14.22l-1-.51c-.22-.11.26-.15-.48-.19s-1-.07-.84.41.7,0,.29.66-.26,1,0,.93.4-.63.59-.23.07.08.18.41,0,.33,0,.59,0,.37-.08.48-.18.44-.63.29-1-1.25-1.25-.7.26.45.33,1.07-.44,1-.22,1.15-.22.11.52-.3,1.8-1.25,1.18-.37a5.68,5.68,0,0,1-1,1.15c-.51.55.26,0,0,.62s0,.7.23.56.51-.52.59-.08.14.41-.11.7-.52,0-.37.59.4.37.44.7-.22-.11.22.45-.07.11.44.55.45.55.45.88-.56.15,0,.56,0-.11.59.4.3.52.59.52-.07-.59,0-.74.3,0,.48.19-.22.07.59.37A7.14,7.14,0,0,0,165.89,153Z"/><path class="cls-10" d="M207.77,119.61c.08-.47.57-1.6,1.26-1.55a1.47,1.47,0,0,1,1.35,1.38,2.78,2.78,0,0,0,.32,1.35c.07.35,0,.22.12.84a4.52,4.52,0,0,1,.2,1.4c0,.81-.19.86,0,1.18s.22.32.37,0,.32-.27.34-.69.22-1.38.17-1.57,0-.69,0-1.21,0-.74,0-1.15a3.56,3.56,0,0,0,0-1.38c-.16-.47-.13-1.06-.28-1.35s-.07-.72-.27-1a2.21,2.21,0,0,1-.34-1,4.31,4.31,0,0,0-.37-1.23c-.1-.15-.84-1.4-1.11-1.4s-.54-.25-.86,0-.69.22-.91.73a7.17,7.17,0,0,0-.39,1.53c-.1.51-.4,1.06-.25,1.28s.37-.08.44.22,0,.37-.17.39-.32.1-.31.47-.3,4.77.14,5.46.25.64.44.93,0,.37.32.86.17.49.47.62.07.14.61.14a1.65,1.65,0,0,0,.82-.12c.29-.1.46-.22.46-.44s-.1-.62-.24-.57-.32.22-.49.2a2,2,0,0,1-1-.3,2.3,2.3,0,0,1-.54-.81,4.3,4.3,0,0,1-.35-1.18C207.7,121.36,207.77,119.61,207.77,119.61Z"/><path class="cls-10" d="M175.43,122.54c-.14-3.25-.52-4.39-1.29-4.87a3.23,3.23,0,0,0-.91-1c-.52-.29-1.26-1.25-2.14-1.44a17.91,17.91,0,0,0-2.4-.66,5.63,5.63,0,0,0-4.5,1.47s.52-.07.48.22-.26.45-.48.71-.52.33-.52.77-.11.55.08.7.59.22.37.55-.3.15-.45.78-.55.26-.55.77.44.37.11.92-.48.34-.48.34a2.67,2.67,0,0,0-.18,1.51,6.26,6.26,0,0,0,.37,2,4.75,4.75,0,0,0,.81,1.8,5.67,5.67,0,0,0,1.1.8c.19.16.19.31.89.42s.33.45,2.25.32a9,9,0,0,0,3.68-.74C172.67,127.52,175.57,125.78,175.43,122.54Zm-3.94,2.76c-.44,2.29-2.84,2.4-3.46,2.61s-.26-.14-.3-.47.22-.29.58-1.29-.36,0-.76,0a10,10,0,0,1-1,0c-.51,0-.14-.14.19-.47s.85-.08,1.25-.12.41-.25.3-.92-.33.08-1,.22-.59-.07-.81-.07-.29.15-.48.26-.22,0-.55-.3,0-.48,0-1.32a11.18,11.18,0,0,0-.15-1.52c-.11-.84-.37.63-.51,1a4.86,4.86,0,0,0-.08,1.58,2.77,2.77,0,0,0,.37,1.23c.08.25.37.4.37.7s-.41.4-.66.4-.3-.15-.59-.59a4,4,0,0,1-.48-1.55,7.26,7.26,0,0,1,.22-2.21,2.7,2.7,0,0,1,1.29-2,5.14,5.14,0,0,1,1.29-1c.85-.48,1-.11,1.88,0s1,.45,1.62.81a4,4,0,0,1,1.29,1.29C171.57,122,171.94,123,171.49,125.3Z"/><path class="cls-10" d="M140.88,108.49s2,1.25,1.85,2a11.42,11.42,0,0,1-.41,1.51c-.07.33.52,0,.66,0s.59-.37.34-.59,0-1-.59-1.92A2.51,2.51,0,0,0,140.88,108.49Z"/><path class="cls-10" d="M140.44,113a3.29,3.29,0,0,0,.26.44c.11.19.27-.37.18.5s.33.79-.44,2.3-.31,1.13-.46,1.83-.71,1.84,0,2.21,3.51,1.74,5.23,1.77a14.14,14.14,0,0,1,3,.39c.61.07,1.37.15,1.4.57s-.32.76.12.81a.5.5,0,0,0,.59-.37c0-.1.05-.89.22-.32s-.39.42.3.59,1.65.82,1.39,1.19-1,.33-1.26.74-.66.59,0,.63,1.3.07,1.26.18-.37.22-.3.63.15.66.59.59,1.81-.85,2-.85a3.36,3.36,0,0,0,.26-2.25,28.79,28.79,0,0,0-2.09-2.77s-.75,0-1.18,0-4.28-.08-4.57-.14-1.07-.22-1.84-.32-4.73-.94-4.75-1.83a5.21,5.21,0,0,1,.45-2c.11-.26.27-1.25.48-1.78a12.74,12.74,0,0,1,.5-1.38,6.85,6.85,0,0,0,.47-1c.06-.17.16-.44,0-.51s-.92.05-1.41,0S140.44,113,140.44,113Z"/><path class="cls-10" d="M135.51,122.51a3.67,3.67,0,0,0,1.89,3,18.32,18.32,0,0,0,4.77,2.08c.72.11,3.25.85,4.43.92a51.08,51.08,0,0,0,5.55.47,2.15,2.15,0,0,1,1.43.22c.2.05-.05-.76,0-.84s.69-.14-1.15-.07a10.2,10.2,0,0,1-3,0c-1.69-.22-2.16-.32-2.9-.41a26.92,26.92,0,0,1-5.26-1.15,12.34,12.34,0,0,0-1.85-.79,6.68,6.68,0,0,1-1.18-.61c-.87-.48-1.18-.46-1.46-.92s-.33-.33-.49-.76,0-.33-.28-.73A1.35,1.35,0,0,0,135.51,122.51Z"/><path class="cls-10" d="M138.16,128.49c0,.17.13.49.32.49a5,5,0,0,1,4,4.25,13.53,13.53,0,0,1,0,5.76c-.1.49-1.91,2.55-2,3.24a3.88,3.88,0,0,0,0,1.33,13.7,13.7,0,0,0,1.69-2.07,10.52,10.52,0,0,0,1.58-3.59,12.59,12.59,0,0,0-.25-5.16c-.59-1.77-.84-2.16-1.62-2.7s-2.22-1.33-2.66-1.55A1.59,1.59,0,0,0,138.16,128.49Z"/><path class="cls-10" d="M152.5,133.6s-5.31,4.8-5.61,10-.59,7.95.74,9.84,2.29,4.1,4.43,5.35a10.7,10.7,0,0,1,3.15,2.36,4.61,4.61,0,0,0-.37.74,8.81,8.81,0,0,1-2.19-1.69c-1.26-1.26-4.7-4.65-5.42-5.68a8.34,8.34,0,0,1-1.44-3.84c-.3-1.84.07-4.87,0-6.2S147.56,136.4,152.5,133.6Z"/><path class="cls-12" d="M250,453.49V291.26a20.44,20.44,0,0,0-3.41-.85,8.57,8.57,0,0,1-6-2.48c-2.46-2.38-6.75-2.28-8.11-2.75s-7.59.52-8.21,1.31-8.22,4.18-8.22,4.18c-.1.37-7.48,1.63-13.45-2.74a15.15,15.15,0,0,0-12.4-2.49c-.47,0-7.38,2.49-8,3.61s-5,1.73-7,2-5.13-.78-6.28-.89-3.87-2.22-8-4.34-11.3-.16-11.77.26-7.59,4.34-7.59,4.34l-8,.53s-5.08-1.73-5.29-2.1a38.4,38.4,0,0,0-4.18-2.46l-4.24-1.2h-5.08l-4.08,1.26-4,2.56-4.86,1.73-3.07.69v8.48a154.88,154.88,0,0,0,17.75,72.28C142,420.57,192.24,453.49,250,453.49Z"/><path class="cls-13" d="M250.51,290.83c-9.45,0-9.45-6.05-18.89-6.05s-9.45,6.05-18.9,6.05-9.44-6.05-18.89-6.05-9.45,6.05-18.89,6.05-9.45-6.05-18.9-6.05-9.45,6.05-18.89,6.05-9.45-6.05-18.9-6.05-9.45,6.05-18.9,6.05"/><path class="cls-13" d="M250.51,302.46c-9.45,0-9.45-6-18.89-6s-9.45,6-18.9,6-9.44-6-18.89-6-9.45,6-18.89,6-9.45-6-18.9-6-9.45,6-18.89,6-9.45-6-18.9-6-9.45,6-18.9,6"/><path class="cls-13" d="M250.51,325.71c-9.45,0-9.45-6-18.89-6s-9.45,6-18.9,6-9.44-6-18.89-6-9.45,6-18.89,6-9.45-6-18.9-6-9.45,6-18.89,6-9.45-6-18.9-6-9.45,6-18.9,6"/><path class="cls-13" d="M250.51,337.34c-9.45,0-9.45-6-18.89-6s-9.45,6-18.9,6-9.44-6-18.89-6-9.45,6-18.89,6-9.45-6-18.9-6-9.45,6-18.89,6-9.45-6-18.9-6-9.45,6-18.9,6"/><path class="cls-13" d="M250.51,360.6c-9.45,0-9.45-6.05-18.89-6.05s-9.45,6.05-18.9,6.05-9.44-6.05-18.89-6.05-9.45,6.05-18.89,6.05-9.45-6.05-18.9-6.05-9.45,6.05-18.89,6.05-9.45-6.05-18.9-6.05-9.45,6.05-18.9,6.05"/><path class="cls-13" d="M250.51,372.22c-9.45,0-9.45-6-18.89-6s-9.45,6-18.9,6-9.44-6-18.89-6-9.45,6-18.89,6-9.45-6-18.9-6-9.45,6-18.89,6-9.45-6-18.9-6-9.45,6-18.9,6"/><path class="cls-13" d="M250.51,395.48c-9.45,0-9.45-6.05-18.89-6.05s-9.45,6.05-18.9,6.05-9.44-6.05-18.89-6.05-9.45,6.05-18.89,6.05-9.45-6.05-18.9-6.05-9.45,6.05-18.89,6.05-9.45-6.05-18.9-6.05-9.45,6.05-18.9,6.05"/><path class="cls-13" d="M250.51,404.11c-9.45,0-9.45-6.05-18.89-6.05s-9.45,6.05-18.9,6.05-9.44-6.05-18.89-6.05-9.45,6.05-18.89,6.05-9.45-6.05-18.9-6.05-9.45,6.05-18.89,6.05-9.45-6.05-18.9-6.05-9.45,6.05-18.9,6.05"/><path class="cls-13" d="M250.51,430.14c-8.74,0-8.74-5.6-17.47-5.6s-8.73,5.6-17.47,5.6-8.73-5.6-17.47-5.6-8.73,5.6-17.47,5.6-8.73-5.6-17.47-5.6-8.74,5.6-17.47,5.6-8.74-5.6-17.48-5.6-8.74,5.6-17.47,5.6"/><path class="cls-13" d="M250.51,438.76c-8.74,0-8.74-5.59-17.47-5.59s-8.73,5.59-17.47,5.59-8.73-5.59-17.47-5.59-8.73,5.59-17.47,5.59-8.73-5.59-17.47-5.59-8.74,5.59-17.47,5.59-8.74-5.59-17.48-5.59-8.74,5.59-17.47,5.59"/><path class="cls-14" d="M52.33,0V302.33a197.67,197.67,0,1,0,395.34,0V0ZM401.16,292.59a168.38,168.38,0,0,1-17.76,75.72C358,419,307.76,453.49,250,453.49S142,419,116.6,368.31a168.38,168.38,0,0,1-17.76-75.72V46.51H401.16Z"/><path class="cls-15" d="M350.52,258.67l-4.32-20.18a19.73,19.73,0,0,0-20.3-2.22h0a19.76,19.76,0,0,0-20.3,2.22l-4.33,20.18s16.34.67,22.56-1.46a2.41,2.41,0,0,0,2.07,1.16A2.44,2.44,0,0,0,328,257.2C334.19,259.33,350.52,258.67,350.52,258.67Z"/><path class="cls-16" d="M307.27,237.39,303,257.86c1.77.22,4.19.38,6.4.44s5.91-.33,5.91-.33c2.87.46,10.64-2.6,10.64-2.6V236.26A19.63,19.63,0,0,0,307.27,237.39Z"/><path class="cls-16" d="M303,257.86s5.34-7,22.95-3.33v.84S316.46,259.64,303,257.86Z"/><path class="cls-16" d="M309.81,240.35a6.46,6.46,0,0,1,1.94-.77c.59,0,1.88.59,2.41.38s1.71-1.09,2.35-.85,1.65.84,2,.6,1.59-1.16,2.3-.64a3.77,3.77,0,0,0,1.82.56"/><path class="cls-16" d="M309,245.33c1-.54,1.83-.77,2.12-.59a2.94,2.94,0,0,0,2.06.26,6.62,6.62,0,0,1,2.18-.62c.35.12,2.17.4,2.41.46a8,8,0,0,0,2-.48c.18-.1,1.35-.37,1.77,0a3.34,3.34,0,0,0,1.64.39"/><path class="cls-16" d="M307.75,251.55c.82-.24,1.94-.65,2.35-.77s.77.3,1.82,0a26.35,26.35,0,0,1,2.83-.59,3.77,3.77,0,0,1,2,0,5.23,5.23,0,0,0,2.29.18,3.26,3.26,0,0,1,1.83-.32l1.76.43"/><path class="cls-16" d="M344.53,237.4l4.32,20.47c-1.77.22-4.19.38-6.4.43a58.85,58.85,0,0,1-5.91-.33c-2.87.46-10.64-2.59-10.64-2.59V236.27A19.63,19.63,0,0,1,344.53,237.4Z"/><path class="cls-16" d="M348.85,257.87s-5.34-7-23-3.33v.84S335.34,259.65,348.85,257.87Z"/><path class="cls-16" d="M342,240.36a6.46,6.46,0,0,0-1.94-.77c-.59,0-1.88.59-2.41.38s-1.71-1.09-2.36-.86-1.64.85-2,.61-1.59-1.16-2.29-.65a3.7,3.7,0,0,1-1.83.57"/><path class="cls-16" d="M342.81,245.34c-1-.54-1.82-.77-2.11-.6a2.88,2.88,0,0,1-2.06.27,6.44,6.44,0,0,0-2.18-.62c-.35.12-2.18.39-2.41.46a7.8,7.8,0,0,1-2-.48c-.18-.1-1.36-.38-1.77,0a3.49,3.49,0,0,1-1.65.39"/><path class="cls-16" d="M344.05,251.56c-.82-.24-1.94-.65-2.35-.77s-.77.29-1.83,0a24.41,24.41,0,0,0-2.82-.59,3.77,3.77,0,0,0-2,0,5.26,5.26,0,0,1-2.3.17c-.53-.12-1-.51-1.82-.31s-1.35.31-1.77.43"/><path class="cls-17" d="M280.1,356.79l3.48,3.44a2.48,2.48,0,0,0,3.48,0l87.06-86a2.4,2.4,0,0,0,0-3.44l-3.48-3.44a2.48,2.48,0,0,0-3.48,0l-87.06,86A2.41,2.41,0,0,0,280.1,356.79Z"/><path class="cls-18" d="M278.35,326.77h0c-.15.83-.27,1.65-.34,2.49,0,.41-.07.82-.09,1.24s0,.93,0,1.39,0,.78,0,1.15,0,.85.09,1.28c.09.85.2,1.7.37,2.56s.35,1.69.58,2.53c.14.47.29.94.45,1.4a9.16,9.16,0,0,0,.37,1,31.08,31.08,0,0,0,2.4,5c.39.66.82,1.32,1.27,2,.29.41.58.8.89,1.19a32.16,32.16,0,0,0,2.91,3.29,33.34,33.34,0,0,0,3.33,2.88q.58.45,1.2.87c.66.44,1.33.87,2,1.26s1.21.69,1.82,1l.93.45.93.41.94.38c.82.31,1.65.6,2.48.84l.79.21a26.52,26.52,0,0,0,3.26.66,5,5,0,0,0,.56.08,27.41,27.41,0,0,0,3.5.22c.44,0,.87,0,1.31,0s.87-.05,1.3-.09a25.73,25.73,0,0,0,6.29-1.4c.4-.15.81-.3,1.2-.47a35.89,35.89,0,0,1-19.24-4.24,3.06,3.06,0,0,1-.79-.43,6.26,6.26,0,0,1-.49-.41,3.92,3.92,0,0,1-.77-1.07,3.29,3.29,0,0,1,.09-3.26v0L298,351a.86.86,0,0,0-.16-.79l-.13-.14-7.27-7.18a.79.79,0,0,0-.84-.13,3.37,3.37,0,0,1-3.51.11,3.58,3.58,0,0,1-1-.72,3.25,3.25,0,0,1-.6-.78.6.6,0,0,1-.09-.13,35.41,35.41,0,0,1-4.49-14.67Z"/><path class="cls-19" d="M277.6,326.9a28.47,28.47,0,0,0,4.13,21.61,7.29,7.29,0,0,0,0,2,9.24,9.24,0,0,0,2.74,5.52,9.44,9.44,0,0,0,5.59,2.7,7,7,0,0,0,2,0c9,5.61,19.86,6.27,28.23,1.72-.38.05-.78.08-1.19.11-7.78,3.28-17.24,2.48-25.32-2.26-.67-.38-1.34-.81-2-1.26-.41-.29-.81-.57-1.2-.87a33.34,33.34,0,0,1-3.33-2.88,32.26,32.26,0,0,1-2.92-3.29c-.3-.39-.58-.78-.87-1.19-.46-.65-.89-1.31-1.28-2a28.61,28.61,0,0,1-3.82-20Z"/><path class="cls-20" d="M294.07,266.3l11,10.83a2.42,2.42,0,0,1,0,3.43L301.52,284l41.52,41-3.19,3.16a4.11,4.11,0,0,0-.3.29c-.1.1-.21.2-.3.3L336.06,332l-41.53-41L291,294.37a2.49,2.49,0,0,1-3.48,0l-10.95-10.82a2.4,2.4,0,0,1-.67-2.18l5-.34a1.92,1.92,0,0,0,.55,1.68l6.92,6.84a2,2,0,0,0,2.78,0l8.94-8.84a1.93,1.93,0,0,0,0-2.75l-6.92-6.84a1.94,1.94,0,0,0-1.7-.53l.36-4.95A2.47,2.47,0,0,1,294.07,266.3Z"/><path class="cls-21" d="M291.88,265.64l-.36,4.95a1.92,1.92,0,0,0-1.08.54L281.5,280a1.93,1.93,0,0,0-.56,1.07l-5,.34a2.52,2.52,0,0,1,.68-1.26l14-13.8A2.46,2.46,0,0,1,291.88,265.64Z"/><path class="cls-22" d="M363.35,317.6v0a46.34,46.34,0,0,1,4.92,6.37,47.8,47.8,0,0,1,7.09,33,44.46,44.46,0,0,1-1.18,5.66l-.08.08a47,47,0,0,1-5.71,1.17,49.33,49.33,0,0,1-33.42-7,47.07,47.07,0,0,1-6.44-4.86h0a.12.12,0,0,1,0-.17.14.14,0,0,1,.14,0l0,0a9.8,9.8,0,0,0,4.71,1.31,10,10,0,0,0,7.23-2.87,9.65,9.65,0,0,0,.06-13.75L336.06,332l7-6.91,4.66,4.6a9.9,9.9,0,0,0,13.9-.06,9.71,9.71,0,0,0,2.9-7.14,9.45,9.45,0,0,0-1.32-4.67s0,0,0,0a.11.11,0,0,1,0-.13A.12.12,0,0,1,363.35,317.6Z"/></g></g></svg>