<svg width="288" height="288" viewBox="0 0 288 288" fill="none" xmlns="http://www.w3.org/2000/svg">
<path fill-rule="evenodd" clip-rule="evenodd" d="M144 288C223.529 288 288 223.529 288 144C288 64.471 223.529 0 144 0C64.471 0 0 64.471 0 144C0 223.529 64.471 288 144 288ZM144 228C190.392 228 228 190.392 228 144C228 97.6081 190.392 60 144 60C97.6081 60 60 97.6081 60 144C60 190.392 97.6081 228 144 228Z" fill="white" fill-opacity="0.2"/>
<circle cx="30" cy="144" r="30" fill="white"/>
<mask id="mask0" mask-type="alpha" maskUnits="userSpaceOnUse" x="0" y="0" width="288" height="144">
<rect width="288" height="144" fill="white"/>
</mask>
<g mask="url(#mask0)">
<path fill-rule="evenodd" clip-rule="evenodd" d="M42.1767 245.823C15.1715 218.818 0.00012207 182.191 0.00012207 144L60.0001 144C60.0001 190.392 97.6082 228 144 228C190.392 228 228 190.392 228 144L288 144C288 182.191 272.829 218.818 245.823 245.823C218.818 272.829 182.191 288 144 288C105.809 288 69.182 272.829 42.1767 245.823Z" fill="white"/>
</g>
<mask id="mask1" mask-type="alpha" maskUnits="userSpaceOnUse" x="0" y="144" width="288" height="144">
<rect y="144" width="288" height="144" fill="white"/>
</mask>
<g mask="url(#mask1)">
</g>
</svg>
