<svg width="24" height="24" viewBox="0 0 24 24" fill="none" xmlns="http://www.w3.org/2000/svg">
<g clip-path="url(#clip0)">
<path d="M22.365 8.72895C23.265 8.72895 24 7.99395 24 7.09395C24 6.19395 23.265 5.45795 22.365 5.45795C21.465 5.45795 20.729 6.19295 20.729 7.09395C20.729 7.99495 21.452 8.72895 22.365 8.72895ZM17.458 14.1809C18.3255 14.1809 19.1575 13.8363 19.7709 13.2229C20.3844 12.6095 20.729 11.7775 20.729 10.9099C20.729 10.0424 20.3844 9.21043 19.7709 8.597C19.1575 7.98357 18.3255 7.63895 17.458 7.63895C16.5905 7.63895 15.7585 7.98357 15.1451 8.597C14.5316 9.21043 14.187 10.0424 14.187 10.9099C14.187 11.7775 14.5316 12.6095 15.1451 13.2229C15.7585 13.8363 16.5905 14.1809 17.458 14.1809ZM17.458 22.9029C19.563 22.9029 21.274 21.1919 21.274 19.0739C21.274 16.9559 19.563 15.2579 17.445 15.2579C16.4333 15.259 15.4633 15.6614 14.7479 16.3768C14.0324 17.0922 13.6301 18.0622 13.629 19.0739C13.6283 19.577 13.7269 20.0753 13.9191 20.5402C14.1113 21.0051 14.3933 21.4275 14.749 21.7833C15.1046 22.139 15.527 22.4212 15.9919 22.6135C16.4567 22.8058 16.9549 22.9035 17.458 22.9029ZM6.542 14.1799C8.27705 14.1799 9.94103 13.4907 11.1679 12.2638C12.3948 11.037 13.084 9.37299 13.084 7.63795C13.084 5.9029 12.3948 4.23892 11.1679 3.01205C9.94103 1.78519 8.27705 1.09595 6.542 1.09595C4.80695 1.09595 3.14297 1.78519 1.91611 3.01205C0.689244 4.23892 0 5.9029 0 7.63795C0 9.37299 0.689244 11.037 1.91611 12.2638C3.14297 13.4907 4.80695 14.1799 6.542 14.1799Z" fill="url(#paint0_linear)"/>
</g>
<defs>
<linearGradient id="paint0_linear" x1="20.5" y1="16.5" x2="8" y2="6.5" gradientUnits="userSpaceOnUse">
<stop stop-color="#FBBF24"/>
<stop offset="1" stop-color="#FB923C"/>
</linearGradient>
<clipPath id="clip0">
<rect width="24" height="24" fill="white"/>
</clipPath>
</defs>
</svg>
