<svg width="388" height="318" viewBox="0 0 388 318" fill="none" xmlns="http://www.w3.org/2000/svg">
<g clip-path="url(#clip0_65:270)">
<path d="M213.074 163.278L95.9115 223.685C91.9362 225.729 87.3117 226.112 83.0539 224.752C78.7962 223.391 75.252 220.396 73.1987 216.426L2.25612 78.8271C0.212132 74.8518 -0.1714 70.2281 1.18954 65.9696C2.55047 61.7118 5.54481 58.1677 9.51561 56.1148L118.517 -0.0838165L151.177 6.432L220.334 140.566C222.377 144.541 222.762 149.165 221.4 153.423C220.039 157.681 217.045 161.225 213.074 163.278Z" fill="#D1D5DB"/>
<path d="M11.7396 60.4289C8.91193 61.8908 6.77956 64.4151 5.81043 67.4469C4.84122 70.4795 5.11441 73.7722 6.56993 76.6028L77.5127 214.201C78.9749 217.029 81.4984 219.161 84.531 220.131C87.5628 221.1 90.8556 220.827 93.6869 219.371L210.85 158.964C213.677 157.502 215.81 154.978 216.779 151.946C217.748 148.914 217.475 145.621 216.019 142.79L147.934 10.7346L119.232 5.00837L11.7396 60.4289Z" fill="white"/>
<path d="M151.033 7.25809L132.9 16.6068C131.576 17.2893 130.035 17.418 128.617 16.9646C127.198 16.5111 126.018 15.5127 125.335 14.189L118.431 0.796608C118.4 0.737977 118.387 0.671947 118.392 0.606235C118.398 0.540523 118.423 0.477676 118.462 0.424931C118.501 0.372187 118.555 0.331694 118.617 0.308066C118.678 0.284438 118.746 0.278631 118.81 0.29136L150.939 6.60176C151.01 6.61577 151.076 6.65172 151.126 6.70463C151.176 6.75745 151.208 6.8246 151.219 6.89675C151.229 6.96891 151.216 7.04249 151.183 7.10717C151.15 7.17193 151.097 7.22467 151.033 7.25809Z" fill="#D1D5DB"/>
<path d="M261.664 212.751L119.381 248.039C114.555 249.23 109.453 248.458 105.195 245.893C100.938 243.327 97.8708 239.177 96.6687 234.353L55.2266 67.2543C54.0354 62.4278 54.8074 57.3261 57.3729 53.0682C59.9385 48.8102 64.0884 45.7438 68.9122 44.5417L201.283 11.7123L234.95 27.1467L275.349 190.038C276.541 194.865 275.769 199.967 273.203 204.225C270.637 208.482 266.488 211.549 261.664 212.751Z" fill="#9CA3AF"/>
<path d="M70.2112 49.7807C66.7762 50.6368 63.8211 52.8204 61.9941 55.8526C60.167 58.8848 59.6174 62.5177 60.4657 65.9544L101.908 233.054C102.764 236.489 104.948 239.444 107.98 241.271C111.012 243.098 114.645 243.648 118.082 242.8L260.364 207.512C263.799 206.656 266.755 204.472 268.581 201.44C270.409 198.408 270.959 194.775 270.11 191.338L230.337 30.97L200.749 17.4059L70.2112 49.7807Z" fill="white"/>
<path d="M234.582 28.0035L212.562 33.4647C210.954 33.8633 209.254 33.6071 207.836 32.7524C206.417 31.8976 205.396 30.5143 204.997 28.9067L200.964 12.643C200.946 12.5718 200.949 12.497 200.972 12.4273C200.995 12.3576 201.037 12.2958 201.093 12.2488C201.15 12.202 201.218 12.1719 201.291 12.1621C201.363 12.1524 201.437 12.1633 201.504 12.1937L234.649 27.2693C234.723 27.3029 234.785 27.3586 234.825 27.4287C234.866 27.4987 234.884 27.5797 234.877 27.6604C234.869 27.7411 234.837 27.8175 234.784 27.879C234.731 27.9404 234.66 27.984 234.582 28.0035Z" fill="#9CA3AF"/>
<path d="M315.803 292.262H142.257C136.373 292.255 130.731 289.914 126.569 285.753C122.408 281.591 120.066 275.949 120.06 270.064V66.2504C120.066 60.3649 122.408 54.7227 126.569 50.5613C130.731 46.3999 136.373 44.0591 142.257 44.0524H303.713L338 71.3816V270.064C337.993 275.949 335.652 281.591 331.491 285.753C327.33 289.914 321.687 292.255 315.803 292.262Z" fill="#4B5563"/>
<path d="M142.258 50.4426C138.067 50.4474 134.049 52.1143 131.086 55.0778C128.122 58.0412 126.455 62.0595 126.45 66.2504V270.064C126.455 274.255 128.122 278.273 131.086 281.236C134.049 284.2 138.067 285.867 142.258 285.872H315.803C319.994 285.867 324.011 284.2 326.975 281.236C329.938 278.273 331.605 274.255 331.61 270.064V74.4604L301.478 50.4426H142.258Z" fill="white"/>
<path d="M337.333 72.2615H310.475C308.514 72.2615 306.633 71.4827 305.247 70.096C303.861 68.7094 303.082 66.8287 303.082 64.8685V45.0309C303.082 44.9441 303.106 44.859 303.152 44.7854C303.198 44.7118 303.264 44.6527 303.343 44.6149C303.421 44.5772 303.508 44.5621 303.594 44.5717C303.681 44.5811 303.762 44.6148 303.831 44.6687L337.62 71.4365C337.695 71.4962 337.75 71.5781 337.776 71.6704C337.804 71.7619 337.801 71.8605 337.769 71.9512C337.738 72.0419 337.679 72.1199 337.601 72.1756C337.523 72.2313 337.429 72.2615 337.333 72.2615Z" fill="#4B5563"/>
<path d="M229 243C264.898 243 294 213.899 294 178C294 142.101 264.898 113 229 113C193.101 113 164 142.101 164 178C164 213.899 193.101 243 229 243Z" stroke="#DC2626" stroke-width="8" stroke-linecap="round" stroke-linejoin="round"/>
<path d="M255 204C255 204 245.25 191 229 191C212.75 191 203 204 203 204" stroke="#DC2626" stroke-width="8" stroke-linecap="round" stroke-linejoin="round"/>
<path d="M209.5 158.5H209.564" stroke="#DC2626" stroke-width="8" stroke-linecap="round" stroke-linejoin="round"/>
<path d="M248.5 158.5H248.564" stroke="#DC2626" stroke-width="8" stroke-linecap="round" stroke-linejoin="round"/>
<mask id="path-14-inside-1_65:270" fill="white">
<path fill-rule="evenodd" clip-rule="evenodd" d="M280.613 233.961C271.599 242.284 260.697 248.37 248.791 251.66C234.069 255.727 218.472 255.338 203.971 250.541C189.47 245.744 176.718 236.755 167.325 224.711C157.934 212.666 152.325 198.107 151.207 182.874C150.089 167.642 153.514 152.42 161.047 139.133C168.581 125.847 179.886 115.094 193.531 108.231C207.177 101.37 222.55 98.709 237.708 100.585C252.866 102.46 267.128 108.788 278.688 118.769C294.172 132.166 303.707 151.157 305.206 171.576C306.503 189.254 301.684 206.751 291.697 221.196L373.022 291.463C374.718 292.928 375.763 295.008 375.927 297.245C376.091 299.481 375.36 301.691 373.896 303.389C372.432 305.086 370.354 306.131 368.119 306.296C365.884 306.46 363.677 305.729 361.981 304.264L280.613 233.961ZM170.744 170.111C172.151 158.743 176.898 148.047 184.383 139.376C194.431 127.764 208.674 120.612 223.989 119.488C239.303 118.365 254.438 123.362 266.073 133.383C274.744 140.869 281 150.758 284.051 161.799C287.101 172.841 286.81 184.539 283.212 195.414C279.614 206.29 272.872 215.854 263.839 222.899C254.805 229.942 243.886 234.149 232.462 234.988C221.037 235.825 209.621 233.257 199.656 227.606C189.691 221.956 181.626 213.478 176.48 203.244C171.334 193.01 169.338 181.479 170.744 170.111Z"/>
</mask>
<path fill-rule="evenodd" clip-rule="evenodd" d="M280.613 233.961C271.599 242.284 260.697 248.37 248.791 251.66C234.069 255.727 218.472 255.338 203.971 250.541C189.47 245.744 176.718 236.755 167.325 224.711C157.934 212.666 152.325 198.107 151.207 182.874C150.089 167.642 153.514 152.42 161.047 139.133C168.581 125.847 179.886 115.094 193.531 108.231C207.177 101.37 222.55 98.709 237.708 100.585C252.866 102.46 267.128 108.788 278.688 118.769C294.172 132.166 303.707 151.157 305.206 171.576C306.503 189.254 301.684 206.751 291.697 221.196L373.022 291.463C374.718 292.928 375.763 295.008 375.927 297.245C376.091 299.481 375.36 301.691 373.896 303.389C372.432 305.086 370.354 306.131 368.119 306.296C365.884 306.46 363.677 305.729 361.981 304.264L280.613 233.961ZM170.744 170.111C172.151 158.743 176.898 148.047 184.383 139.376C194.431 127.764 208.674 120.612 223.989 119.488C239.303 118.365 254.438 123.362 266.073 133.383C274.744 140.869 281 150.758 284.051 161.799C287.101 172.841 286.81 184.539 283.212 195.414C279.614 206.29 272.872 215.854 263.839 222.899C254.805 229.942 243.886 234.149 232.462 234.988C221.037 235.825 209.621 233.257 199.656 227.606C189.691 221.956 181.626 213.478 176.48 203.244C171.334 193.01 169.338 181.479 170.744 170.111Z" fill="#DC2626"/>
<path d="M280.613 233.961L281.921 232.448L280.569 231.28L279.256 232.491L280.613 233.961ZM248.791 251.66L248.258 249.732L248.258 249.732L248.791 251.66ZM203.971 250.541L203.343 252.44L203.343 252.44L203.971 250.541ZM167.325 224.711L165.748 225.94L165.748 225.94L167.325 224.711ZM151.207 182.874L153.202 182.728L151.207 182.874ZM161.047 139.133L159.308 138.147L159.308 138.147L161.047 139.133ZM193.531 108.231L192.632 106.444L192.632 106.445L193.531 108.231ZM237.708 100.585L237.954 98.5998L237.954 98.5998L237.708 100.585ZM278.688 118.769L279.997 117.257L279.995 117.256L278.688 118.769ZM305.206 171.576L307.2 171.43L307.2 171.43L305.206 171.576ZM291.697 221.196L290.052 220.059L289.031 221.536L290.389 222.71L291.697 221.196ZM373.022 291.463L374.33 289.95L374.329 289.95L373.022 291.463ZM375.927 297.245L377.922 297.099L377.922 297.098L375.927 297.245ZM373.896 303.389L375.41 304.695L375.411 304.695L373.896 303.389ZM368.119 306.296L367.972 304.301L367.972 304.301L368.119 306.296ZM361.981 304.264L363.288 302.75L363.288 302.75L361.981 304.264ZM184.383 139.376L182.871 138.067L182.869 138.069L184.383 139.376ZM170.744 170.111L168.759 169.866L168.759 169.866L170.744 170.111ZM223.989 119.488L223.842 117.494L223.842 117.494L223.989 119.488ZM266.073 133.383L267.38 131.869L267.378 131.867L266.073 133.383ZM284.051 161.799L285.978 161.266L285.978 161.266L284.051 161.799ZM263.839 222.899L265.069 224.476L265.069 224.476L263.839 222.899ZM232.462 234.988L232.608 236.982L232.609 236.982L232.462 234.988ZM199.656 227.606L200.643 225.867L200.643 225.866L199.656 227.606ZM176.48 203.244L178.267 202.346L178.267 202.346L176.48 203.244ZM279.256 232.491C270.476 240.599 259.856 246.527 248.258 249.732L249.324 253.587C261.538 250.213 272.722 243.969 281.97 235.43L279.256 232.491ZM248.258 249.732C233.918 253.694 218.725 253.315 204.599 248.642L203.343 252.44C218.22 257.361 234.22 257.76 249.324 253.587L248.258 249.732ZM204.599 248.642C190.474 243.97 178.052 235.214 168.903 223.481L165.748 225.94C175.384 238.297 188.466 247.519 203.343 252.44L204.599 248.642ZM168.903 223.481C159.754 211.749 154.29 197.566 153.202 182.728L149.212 183.021C150.359 198.647 156.113 213.584 165.748 225.94L168.903 223.481ZM153.202 182.728C152.113 167.89 155.449 153.062 162.787 140.12L159.308 138.147C151.579 151.777 148.066 167.394 149.212 183.021L153.202 182.728ZM162.787 140.12C170.126 127.178 181.138 116.703 194.43 110.018L192.632 106.445C178.634 113.485 167.037 124.517 159.308 138.147L162.787 140.12ZM194.429 110.018C207.722 103.334 222.697 100.742 237.463 102.569L237.954 98.5998C222.403 96.6756 206.632 99.4053 192.632 106.444L194.429 110.018ZM237.463 102.569C252.228 104.397 266.12 110.561 277.381 120.283L279.995 117.256C268.135 107.016 253.504 100.524 237.954 98.5998L237.463 102.569ZM277.38 120.282C292.462 133.332 301.752 151.832 303.211 171.723L307.2 171.43C305.663 150.483 295.881 131 279.997 117.257L277.38 120.282ZM303.211 171.723C304.475 188.943 299.78 205.987 290.052 220.059L293.342 222.334C303.587 207.514 308.531 189.565 307.2 171.43L303.211 171.723ZM290.389 222.71L371.714 292.976L374.329 289.95L293.004 219.683L290.389 222.71ZM371.714 292.976C373.009 294.095 373.807 295.683 373.933 297.391L377.922 297.098C377.719 294.332 376.427 291.762 374.33 289.95L371.714 292.976ZM373.933 297.39C374.057 299.099 373.499 300.786 372.381 302.083L375.411 304.695C377.221 302.595 378.124 299.864 377.922 297.099L373.933 297.39ZM372.382 302.082C371.264 303.378 369.679 304.176 367.972 304.301L368.266 308.29C371.03 308.087 373.6 306.794 375.41 304.695L372.382 302.082ZM367.972 304.301C366.267 304.426 364.583 303.869 363.288 302.75L360.673 305.777C362.77 307.589 365.501 308.494 368.266 308.29L367.972 304.301ZM363.288 302.75L281.921 232.448L279.306 235.474L360.673 305.777L363.288 302.75ZM182.869 138.069C175.125 147.039 170.215 158.105 168.759 169.866L172.729 170.357C174.087 159.381 178.67 149.055 185.897 140.683L182.869 138.069ZM223.842 117.494C208 118.656 193.265 126.055 182.871 138.067L185.896 140.685C195.596 129.474 209.349 122.568 224.135 121.483L223.842 117.494ZM267.378 131.867C255.342 121.501 239.685 116.332 223.842 117.494L224.135 121.483C238.921 120.398 253.534 125.223 264.767 134.898L267.378 131.867ZM285.978 161.266C282.822 149.844 276.35 139.614 267.38 131.869L264.766 134.897C273.137 142.125 279.177 151.672 282.123 162.332L285.978 161.266ZM285.111 196.043C288.833 184.791 289.135 172.689 285.978 161.266L282.123 162.331C285.068 172.992 284.787 184.286 281.313 194.786L285.111 196.043ZM265.069 224.476C274.414 217.188 281.389 207.294 285.111 196.043L281.313 194.786C277.84 205.286 271.331 214.52 262.609 221.321L265.069 224.476ZM232.609 236.982C244.427 236.115 255.723 231.763 265.069 224.476L262.609 221.321C253.887 228.122 243.346 232.183 232.316 232.993L232.609 236.982ZM198.67 229.346C208.979 235.192 220.789 237.849 232.608 236.982L232.316 232.993C221.285 233.802 210.264 231.322 200.643 225.867L198.67 229.346ZM174.693 204.143C180.017 214.73 188.361 223.501 198.67 229.346L200.643 225.866C191.022 220.412 183.235 212.226 178.267 202.346L174.693 204.143ZM168.759 169.866C167.304 181.626 169.369 193.556 174.693 204.143L178.267 202.346C173.298 192.465 171.371 181.332 172.729 170.357L168.759 169.866Z" fill="white" mask="url(#path-14-inside-1_65:270)"/>
</g>
<defs>
<clipPath id="clip0_65:270">
<rect width="388" height="318" fill="white"/>
</clipPath>
</defs>
</svg>
