<svg width="499" height="647" viewBox="0 0 499 647" fill="none" xmlns="http://www.w3.org/2000/svg">
<g clip-path="url(#clip0)">
<path d="M351.194 242.623L490.227 212.631L492.033 212.242C492.953 212.042 493.911 212.106 494.797 212.427C495.682 212.747 496.459 213.311 497.039 214.053C497.618 214.795 497.976 215.686 498.071 216.623C498.167 217.559 497.996 218.504 497.579 219.348L442.377 331.45C442.02 332.17 441.495 332.794 440.846 333.269C440.198 333.744 439.444 334.056 438.65 334.179C437.853 334.303 437.038 334.231 436.275 333.969C435.512 333.708 434.824 333.264 434.271 332.677L395.929 292.249C395.656 291.954 395.325 291.719 394.957 291.558C394.589 291.398 394.192 291.315 393.79 291.315C393.244 291.307 392.706 291.448 392.234 291.723C391.762 291.997 391.374 292.395 391.11 292.873L383.257 307.399C382.756 308.368 381.945 309.141 380.953 309.595C379.962 310.05 378.847 310.159 377.786 309.907L377.747 309.898C376.673 309.67 375.707 309.088 375.003 308.246C374.3 307.403 373.901 306.348 373.87 305.251L372.296 271.719C372.278 271.3 372.173 270.89 371.989 270.514C371.792 270.142 371.524 269.811 371.201 269.541L349.081 251.383C348.354 250.786 347.81 249.997 347.511 249.105C347.212 248.213 347.171 247.255 347.391 246.341C347.612 245.426 348.085 244.592 348.758 243.935C349.43 243.277 350.275 242.822 351.194 242.623H351.194ZM350.345 249.84L372.464 267.997C372.752 268.229 373.014 268.493 373.243 268.784L490.478 215.616C490.581 215.568 490.689 215.53 490.8 215.503C491.252 215.386 491.731 215.431 492.153 215.63C492.576 215.829 492.915 216.17 493.113 216.593C493.311 217.016 493.355 217.494 493.238 217.946C493.12 218.398 492.848 218.795 492.469 219.067L396.076 289.875C396.565 290.129 397.006 290.466 397.381 290.87L435.722 331.298C436.055 331.648 436.467 331.913 436.924 332.07C437.381 332.226 437.869 332.27 438.347 332.198C438.824 332.126 439.277 331.939 439.667 331.654C440.057 331.369 440.373 330.995 440.587 330.562L495.788 218.46C496.035 217.954 496.135 217.388 496.076 216.828C496.017 216.268 495.802 215.735 495.455 215.291C495.108 214.847 494.643 214.509 494.114 214.317C493.584 214.124 493.011 214.084 492.46 214.201L490.61 214.6L351.621 244.581C351.069 244.701 350.562 244.973 350.158 245.367C349.754 245.762 349.469 246.262 349.335 246.811C349.202 247.359 349.226 247.934 349.405 248.47C349.583 249.006 349.909 249.48 350.345 249.84V249.84Z" fill="#7DD3FC" fill-opacity="0.5"/>
<path d="M321.557 642.525C334.029 639.157 349.206 625.147 345.957 605.891C344.345 596.341 338.16 590.159 331.747 586.162C322.876 580.633 312.773 578.549 303.037 578.023C291.807 577.416 280.59 578.946 269.444 580.565C258.44 582.164 247.436 583.595 236.383 584.469C193.134 587.861 149.621 584.63 107.347 574.888C96.9135 572.48 86.5424 569.655 76.2339 566.413C66.4654 563.538 56.9149 559.969 47.6552 555.732C35.3994 549.848 15.4684 538.398 17.0935 517.193C17.9553 505.95 24.5766 496.97 31.2553 490.713C39.3307 483.149 48.6751 478.172 57.8272 473.338C100.398 450.857 143.051 428.642 185.663 406.296C195.608 401.081 205.62 396.005 215.272 389.894C224.308 384.171 233.302 377.525 240.574 368.334C246.926 360.307 252.602 349.531 252.401 337.484C252.235 327.494 247.689 319.017 242.121 312.681C228.336 296.995 208.835 290.634 191.211 287.303C169.314 283.164 147.1 283.185 125.189 279.189C107.498 275.962 88.5941 269.732 74.2057 255.133C68.1191 249.195 63.8141 241.674 61.7768 233.418C59.9396 224.771 60.8327 215.768 64.3326 207.65C68.2302 198.341 74.4475 190.924 80.9848 184.852C88.4945 177.973 97.0116 172.283 106.241 167.978C125.674 158.718 146.109 153.897 166.014 146.79C175.776 143.305 185.637 139.483 194.702 133.497C202.382 128.425 210.748 121.589 215.02 111.423C223.836 90.4484 202.805 77.9477 190.888 73.2127C182.788 70.1406 174.446 67.7523 165.947 66.0727C164.15 65.6869 164.913 62.1001 166.701 62.4841C175.647 64.2281 184.414 66.788 192.892 70.1317C200.078 73.1174 207.493 77.0412 213.138 83.7932C215.707 86.8418 217.608 90.3967 218.715 94.2273C219.822 98.0578 220.111 102.078 219.563 106.028C218.068 116.092 211.569 123.846 205.465 129.463C197.393 136.891 188.19 141.741 178.86 145.695C169.032 149.86 158.997 153.105 148.964 156.289C128.917 162.65 107.971 168.319 89.8745 181.855C77.2152 191.324 60.0178 209.078 64.2287 231.084C66.098 240.852 71.7744 248.49 77.9001 254.108C85.0938 260.51 93.3895 265.554 102.384 268.995C142.487 285.134 186.622 273.592 225.692 295.513C238.975 302.966 255.11 316.535 255.24 337.886C255.308 348.977 250.862 359.15 245.365 367.19C238.782 376.82 230.257 383.941 221.584 389.893C212.451 395.931 202.968 401.421 193.185 406.335C182.498 411.949 171.808 417.555 161.117 423.153L96.2326 457.179L63.9946 474.085C54.1554 479.244 44.0636 484.194 35.1176 491.768C27.7928 497.97 19.1386 508.144 19.886 520.778C20.4795 530.811 27.1447 538.052 33.2353 542.892C41.122 549.161 49.9814 553.215 58.7962 556.584C68.9635 560.47 79.2979 563.694 89.6524 566.592C110.863 572.52 132.509 576.757 154.389 579.263C176.215 581.776 198.202 582.596 220.154 581.714C231.246 581.268 242.32 580.381 253.377 579.053C264.775 577.68 276.124 575.565 287.551 574.627C297.887 573.778 308.322 573.975 318.501 576.703C327 578.98 335.979 583.04 342.431 590.962C347.186 597.009 349.567 604.586 349.126 612.266C348.689 619.931 345.957 627.287 341.283 633.378C336.536 639.599 329.866 644.076 322.311 646.114C320.53 646.595 319.768 643.009 321.557 642.525L321.557 642.525Z" fill="#E6E6E6" fill-opacity="0.8"/>
<path d="M0 644H349V646H0V644Z" fill="#6B7280"/>
<path d="M25.9616 538.67C14.2708 538.67 4.79349 529.193 4.79349 517.502C4.79349 505.812 14.2708 496.334 25.9616 496.334C37.6524 496.334 47.1296 505.812 47.1296 517.502C47.1296 529.193 37.6524 538.67 25.9616 538.67Z" fill="#E6E6E6" fill-opacity="0.8"/>
<path d="M64.5806 240.316C52.8897 240.316 43.4124 230.839 43.4124 219.148C43.4124 207.458 52.8897 197.98 64.5806 197.98C76.2714 197.98 85.7487 207.458 85.7487 219.148C85.7487 230.839 76.2714 240.316 64.5806 240.316Z" fill="#E6E6E6" fill-opacity="0.8"/>
<path d="M112.44 0.885498L171.217 26.4372C173.813 27.5692 175.854 29.6847 176.892 32.3196C177.93 34.9544 177.88 37.8935 176.754 40.492L158.503 82.4755C157.371 85.0714 155.256 87.1123 152.621 88.1505C149.986 89.1886 147.047 89.1392 144.448 88.013L85.6712 62.4613C83.0753 61.3293 81.0343 59.2138 79.9962 56.5789C78.958 53.9441 79.0075 51.005 80.1336 48.4065L98.3849 6.42304C99.5169 3.8271 101.632 1.78618 104.267 0.748055C106.902 -0.290075 109.841 -0.240644 112.44 0.885498V0.885498ZM110.006 6.48329C109.655 6.33213 109.286 6.22584 108.907 6.16693L128.779 43.6592L169.594 32.49C169.34 32.3113 169.068 32.1588 168.783 32.035L110.006 6.48329ZM88.1047 56.8635L146.882 82.4152C147.995 82.8978 149.255 82.919 150.384 82.4741C151.513 82.0292 152.42 81.1545 152.905 80.042L170.992 38.4355L128.033 50.1919C127.364 50.3749 126.652 50.3246 126.016 50.0493C125.379 49.774 124.855 49.2901 124.531 48.6774L103.731 9.43471L85.7315 50.84C85.2489 51.9536 85.2277 53.2132 85.6726 54.3425C86.1175 55.4717 86.9922 56.3783 88.1047 56.8635V56.8635Z" fill="#E6E6E6" fill-opacity="0.8"/>
<path d="M178.365 365.057C148.808 365.057 124.846 341.096 124.846 311.538C124.846 281.98 148.808 258.019 178.365 258.019C207.923 258.019 231.885 281.98 231.885 311.538C231.885 341.096 207.923 365.057 178.365 365.057Z" fill="#D1D5DB"/>
<path d="M186.798 644.883H201.558C203.281 644.881 204.934 644.196 206.152 642.977C207.371 641.759 208.056 640.107 208.058 638.383V515.37C208.056 513.646 207.371 511.994 206.152 510.776C204.934 509.557 203.281 508.872 201.558 508.87H186.798C185.075 508.872 183.423 509.557 182.204 510.776C180.986 511.994 180.3 513.646 180.298 515.37V638.383C180.3 640.107 180.986 641.759 182.204 642.977C183.423 644.196 185.075 644.881 186.798 644.883Z" fill="#6B7280"/>
<path d="M157.606 644.883H172.366C174.089 644.881 175.741 644.196 176.96 642.977C178.178 641.759 178.864 640.107 178.866 638.383V515.37C178.864 513.646 178.178 511.994 176.96 510.776C175.741 509.557 174.089 508.872 172.366 508.87H157.606C155.883 508.872 154.231 509.557 153.012 510.776C151.793 511.994 151.108 513.646 151.106 515.37V638.383C151.108 640.107 151.793 641.759 153.012 642.977C154.231 644.196 155.883 644.881 157.606 644.883Z" fill="#6B7280"/>
<path d="M96.4429 502.506C97.0913 502.506 97.7361 502.408 98.356 502.218C99.173 501.97 99.9327 501.562 100.591 501.018C101.25 500.474 101.794 499.806 102.192 499.05L159.857 390.389C160.257 389.635 160.505 388.81 160.586 387.96C160.667 387.11 160.58 386.253 160.33 385.437C160.08 384.621 159.671 383.862 159.128 383.204C158.584 382.546 157.917 382.001 157.163 381.601L144.125 374.682C143.371 374.282 142.546 374.034 141.696 373.952C140.846 373.871 139.989 373.958 139.173 374.208C138.357 374.458 137.598 374.867 136.939 375.411C136.281 375.954 135.736 376.622 135.336 377.376L77.6723 486.037C77.272 486.791 77.0241 487.617 76.9428 488.467C76.8616 489.316 76.9485 490.174 77.1987 490.99C77.4489 491.806 77.8575 492.565 78.4011 493.223C78.9446 493.881 79.6125 494.426 80.3666 494.826L93.4038 501.745C94.339 502.244 95.3827 502.506 96.4429 502.506V502.506Z" fill="#D1D5DB"/>
<path d="M216.486 402.349C217.266 402.349 218.039 402.208 218.769 401.932H218.77L333.848 358.458C334.646 358.157 335.377 357.7 335.999 357.116C336.621 356.532 337.121 355.83 337.472 355.052C337.822 354.274 338.016 353.435 338.042 352.582C338.068 351.729 337.926 350.879 337.623 350.081L332.417 336.274C331.803 334.663 330.575 333.362 329.004 332.654C327.432 331.946 325.644 331.889 324.031 332.496L208.956 375.96C207.346 376.573 206.044 377.798 205.335 379.367C204.626 380.936 204.566 382.722 205.169 384.335L210.385 398.145C210.856 399.381 211.692 400.445 212.782 401.196C213.871 401.947 215.163 402.349 216.486 402.349V402.349Z" fill="#D1D5DB"/>
<path d="M145.442 374.355H212.505C215.818 374.355 218.505 377.041 218.505 380.355V522.831C218.505 526.145 215.818 528.831 212.505 528.831H145.442C142.129 528.831 139.442 526.145 139.442 522.831V380.355C139.442 377.041 142.129 374.355 145.442 374.355Z" fill="#6B7280"/>
<path d="M218.593 401.465L265.887 387.044C267.362 386.594 268.607 385.593 269.364 384.25C270.121 382.907 270.332 381.323 269.953 379.829L264.432 358.074C264.213 357.215 263.808 356.415 263.243 355.731C262.679 355.047 261.97 354.497 261.168 354.12C260.365 353.743 259.489 353.548 258.603 353.55C257.716 353.552 256.841 353.751 256.04 354.131L209.132 376.428C207.645 376.992 206.443 378.123 205.788 379.571C205.133 381.02 205.078 382.67 205.637 384.158L210.853 397.969C211.417 399.458 212.549 400.662 214 401.318C215.451 401.973 217.103 402.026 218.593 401.465V401.465Z" fill="#6B7280"/>
<path d="M159.007 389.158L138.724 434.25C138.092 435.656 136.942 436.765 135.514 437.346C134.085 437.927 132.488 437.936 131.053 437.371L110.171 429.145C109.346 428.82 108.604 428.316 107.997 427.67C107.39 427.024 106.934 426.251 106.661 425.407C106.388 424.564 106.306 423.67 106.42 422.791C106.534 421.912 106.842 421.069 107.32 420.322L135.367 376.608C136.115 375.205 137.388 374.155 138.908 373.688C140.428 373.222 142.071 373.376 143.477 374.118L156.517 381.038C157.923 381.786 158.975 383.061 159.442 384.583C159.908 386.106 159.752 387.751 159.007 389.158V389.158Z" fill="#6B7280"/>
<path d="M351.194 242.623L490.227 212.631L492.033 212.242C492.953 212.042 493.911 212.106 494.797 212.427C495.682 212.747 496.459 213.311 497.039 214.053C497.618 214.795 497.976 215.686 498.071 216.623C498.167 217.559 497.996 218.504 497.579 219.348L442.377 331.45C442.02 332.17 441.495 332.794 440.846 333.269C440.198 333.744 439.444 334.056 438.65 334.179C437.853 334.303 437.038 334.231 436.275 333.969C435.512 333.708 434.824 333.264 434.271 332.677L395.929 292.249C395.656 291.954 395.325 291.719 394.957 291.558C394.589 291.398 394.192 291.315 393.79 291.315C393.244 291.307 392.706 291.448 392.234 291.723C391.762 291.997 391.374 292.395 391.11 292.873L383.257 307.399C382.756 308.368 381.945 309.141 380.953 309.595C379.962 310.05 378.847 310.159 377.786 309.907L377.747 309.898C376.673 309.67 375.707 309.088 375.003 308.246C374.3 307.403 373.901 306.348 373.87 305.251L372.296 271.719C372.278 271.3 372.173 270.89 371.989 270.514C371.792 270.142 371.524 269.811 371.201 269.541L349.081 251.383C348.354 250.786 347.81 249.997 347.511 249.105C347.212 248.213 347.171 247.255 347.391 246.341C347.612 245.426 348.085 244.592 348.758 243.935C349.43 243.277 350.275 242.822 351.194 242.623H351.194ZM350.345 249.84L372.464 267.997C372.752 268.229 373.014 268.493 373.243 268.784C373.449 269.042 373.628 269.322 373.775 269.619C373.929 269.922 374.051 270.241 374.138 270.569L374.136 270.579C374.227 270.922 374.28 271.274 374.293 271.628L375.866 305.16C375.879 305.819 376.116 306.454 376.539 306.961C376.961 307.467 377.543 307.815 378.189 307.947L378.208 307.952C378.845 308.11 379.516 308.048 380.114 307.777C380.711 307.506 381.199 307.041 381.499 306.457L389.355 291.921C389.759 291.174 390.348 290.542 391.066 290.086C391.783 289.63 392.606 289.364 393.454 289.315L393.464 289.317C393.578 289.312 393.692 289.306 393.803 289.311C394.595 289.311 395.375 289.505 396.076 289.875C396.565 290.129 397.006 290.466 397.381 290.87L435.722 331.298C436.055 331.648 436.467 331.913 436.924 332.07C437.381 332.226 437.869 332.27 438.347 332.198C438.824 332.126 439.277 331.939 439.667 331.654C440.057 331.369 440.373 330.995 440.587 330.562L495.788 218.46C496.035 217.954 496.135 217.388 496.076 216.828C496.017 216.268 495.802 215.735 495.455 215.291C495.108 214.847 494.643 214.509 494.114 214.317C493.584 214.124 493.011 214.084 492.46 214.201L490.61 214.6L351.621 244.581C351.069 244.701 350.562 244.973 350.158 245.367C349.754 245.762 349.469 246.262 349.335 246.811C349.202 247.359 349.226 247.934 349.405 248.47C349.583 249.006 349.909 249.48 350.345 249.84V249.84Z" fill="#6B7280"/>
<path d="M372.799 268.983L373.625 270.804L374.136 270.579L374.138 270.569L491.28 217.452L393.464 289.317L393.454 289.315L393.195 289.514L394.375 291.127L396.076 289.875L492.469 219.067C492.848 218.795 493.12 218.398 493.238 217.946C493.355 217.494 493.311 217.015 493.113 216.593C492.915 216.17 492.576 215.829 492.153 215.63C491.731 215.431 491.252 215.386 490.8 215.503C490.689 215.53 490.581 215.567 490.478 215.616L373.243 268.784L372.799 268.983Z" fill="#6B7280"/>
</g>
<defs>
<clipPath id="clip0">
<rect width="498.099" height="646.465" fill="white" transform="matrix(-1 0 0 1 498.099 0)"/>
</clipPath>
</defs>
</svg>
