<svg width="240" height="150" viewBox="0 0 240 150" fill="none" xmlns="http://www.w3.org/2000/svg">
<path d="M60.6829 11.3658C63.8215 11.3658 66.3658 8.82151 66.3658 5.68292C66.3658 2.54433 63.8215 0 60.6829 0C57.5443 0 55 2.54433 55 5.68292C55 8.82151 57.5443 11.3658 60.6829 11.3658Z" fill="#F3F4F6"/>
<path d="M60.6829 34.0147C63.8215 34.0147 66.3658 31.4704 66.3658 28.3318C66.3658 25.1932 63.8215 22.6488 60.6829 22.6488C57.5443 22.6488 55 25.1932 55 28.3318C55 31.4704 57.5443 34.0147 60.6829 34.0147Z" fill="#F3F4F6"/>
<path d="M84.4098 11.3658C87.5484 11.3658 90.0928 8.82151 90.0928 5.68292C90.0928 2.54433 87.5484 0 84.4098 0C81.2713 0 78.7269 2.54433 78.7269 5.68292C78.7269 8.82151 81.2713 11.3658 84.4098 11.3658Z" fill="#F3F4F6"/>
<path d="M84.4098 34.0147C87.5484 34.0147 90.0928 31.4704 90.0928 28.3318C90.0928 25.1932 87.5484 22.6488 84.4098 22.6488C81.2713 22.6488 78.7269 25.1932 78.7269 28.3318C78.7269 31.4704 81.2713 34.0147 84.4098 34.0147Z" fill="#F3F4F6"/>
<path d="M108.137 11.3658C111.275 11.3658 113.819 8.82151 113.819 5.68292C113.819 2.54433 111.275 0 108.137 0C104.998 0 102.454 2.54433 102.454 5.68292C102.454 8.82151 104.998 11.3658 108.137 11.3658Z" fill="#F3F4F6"/>
<path d="M108.137 34.0147C111.275 34.0147 113.819 31.4704 113.819 28.3318C113.819 25.1932 111.275 22.6488 108.137 22.6488C104.998 22.6488 102.454 25.1932 102.454 28.3318C102.454 31.4704 104.998 34.0147 108.137 34.0147Z" fill="#F3F4F6"/>
<path d="M108.137 56.6635C111.275 56.6635 113.819 54.1192 113.819 50.9806C113.819 47.842 111.275 45.2977 108.137 45.2977C104.998 45.2977 102.454 47.842 102.454 50.9806C102.454 54.1192 104.998 56.6635 108.137 56.6635Z" fill="#F3F4F6"/>
<path d="M108.137 79.3124C111.275 79.3124 113.819 76.7681 113.819 73.6295C113.819 70.4909 111.275 67.9465 108.137 67.9465C104.998 67.9465 102.454 70.4909 102.454 73.6295C102.454 76.7681 104.998 79.3124 108.137 79.3124Z" fill="#F3F4F6"/>
<path d="M131.863 11.3658C135.002 11.3658 137.546 8.82151 137.546 5.68292C137.546 2.54433 135.002 0 131.863 0C128.725 0 126.18 2.54433 126.18 5.68292C126.18 8.82151 128.725 11.3658 131.863 11.3658Z" fill="#F3F4F6"/>
<path d="M131.863 34.0147C135.002 34.0147 137.546 31.4704 137.546 28.3318C137.546 25.1932 135.002 22.6488 131.863 22.6488C128.725 22.6488 126.18 25.1932 126.18 28.3318C126.18 31.4704 128.725 34.0147 131.863 34.0147Z" fill="#F3F4F6"/>
<path d="M131.863 56.6635C135.002 56.6635 137.546 54.1192 137.546 50.9806C137.546 47.842 135.002 45.2977 131.863 45.2977C128.725 45.2977 126.18 47.842 126.18 50.9806C126.18 54.1192 128.725 56.6635 131.863 56.6635Z" fill="#F3F4F6"/>
<path d="M131.863 79.3124C135.002 79.3124 137.546 76.7681 137.546 73.6295C137.546 70.4909 135.002 67.9465 131.863 67.9465C128.725 67.9465 126.18 70.4909 126.18 73.6295C126.18 76.7681 128.725 79.3124 131.863 79.3124Z" fill="#F3F4F6"/>
<path d="M155.59 11.3658C158.729 11.3658 161.273 8.82151 161.273 5.68292C161.273 2.54433 158.729 0 155.59 0C152.452 0 149.907 2.54433 149.907 5.68292C149.907 8.82151 152.452 11.3658 155.59 11.3658Z" fill="#F3F4F6"/>
<path d="M155.59 34.0147C158.729 34.0147 161.273 31.4704 161.273 28.3318C161.273 25.1932 158.729 22.6488 155.59 22.6488C152.452 22.6488 149.907 25.1932 149.907 28.3318C149.907 31.4704 152.452 34.0147 155.59 34.0147Z" fill="#F3F4F6"/>
<path d="M179.317 11.3658C182.456 11.3658 185 8.82151 185 5.68292C185 2.54433 182.456 0 179.317 0C176.179 0 173.634 2.54433 173.634 5.68292C173.634 8.82151 176.179 11.3658 179.317 11.3658Z" fill="#F3F4F6"/>
<path d="M179.317 34.0147C182.456 34.0147 185 31.4704 185 28.3318C185 25.1932 182.456 22.6488 179.317 22.6488C176.179 22.6488 173.634 25.1932 173.634 28.3318C173.634 31.4704 176.179 34.0147 179.317 34.0147Z" fill="#F3F4F6"/>
<path d="M91 150H9C6.61389 149.997 4.3263 149.048 2.63907 147.361C0.951832 145.674 0.00272874 143.386 0 141V52C0.0027261 49.6139 0.951832 47.3263 2.63907 45.639C4.32631 43.9518 6.61389 43.0027 9 43H91C93.3861 43.0027 95.6737 43.9518 97.361 45.639C99.0482 47.3263 99.9973 49.6139 100 52V141C99.9973 143.386 99.0482 145.674 97.361 147.361C95.6737 149.048 93.3861 149.997 91 150V150ZM9 45C7.14412 45.002 5.36486 45.7402 4.05255 47.0525C2.74025 48.3648 2.00208 50.1441 2 52V141C2.00208 142.856 2.74025 144.635 4.05255 145.947C5.36486 147.26 7.14412 147.998 9 148H91C92.8559 147.998 94.6351 147.26 95.9474 145.947C97.2598 144.635 97.9979 142.856 98 141V52C97.9979 50.1441 97.2598 48.3648 95.9474 47.0525C94.6351 45.7402 92.8559 45.002 91 45H9Z" fill="#374151"/>
<path d="M25.515 80H17.515C16.3219 79.9986 15.1781 79.5241 14.3345 78.6805C13.4908 77.8369 13.0163 76.693 13.015 75.5V67.5C13.0163 66.3069 13.4908 65.1631 14.3345 64.3195C15.1781 63.4758 16.3219 63.0013 17.515 63H25.515C26.7081 63.0013 27.8519 63.4758 28.6955 64.3195C29.5392 65.1631 30.0137 66.3069 30.015 67.5V75.5C30.0137 76.693 29.5392 77.8369 28.6955 78.6805C27.8519 79.5241 26.7081 79.9986 25.515 80V80Z" fill="#D1D5DB"/>
<path d="M25.515 105H17.515C16.3219 104.999 15.1781 104.524 14.3345 103.68C13.4908 102.837 13.0163 101.693 13.015 100.5V92.5C13.0163 91.3069 13.4908 90.1631 14.3345 89.3195C15.1781 88.4758 16.3219 88.0013 17.515 88H25.515C26.7081 88.0013 27.8519 88.4758 28.6955 89.3195C29.5392 90.1631 30.0137 91.3069 30.015 92.5V100.5C30.0137 101.693 29.5392 102.837 28.6955 103.68C27.8519 104.524 26.7081 104.999 25.515 105V105Z" fill="#E5E7EB"/>
<path d="M83.985 75.1369H46.6356C45.8402 75.1361 45.0777 74.8197 44.5153 74.2573C43.9528 73.6949 43.6365 72.9323 43.6356 72.1369V70.863C43.6365 70.0676 43.9528 69.3051 44.5153 68.7426C45.0777 68.1802 45.8402 67.8639 46.6356 67.863H83.985C84.7804 67.8639 85.5429 68.1802 86.1053 68.7426C86.6678 69.3051 86.9841 70.0676 86.985 70.863V72.1369C86.9841 72.9323 86.6678 73.6949 86.1053 74.2573C85.5429 74.8197 84.7804 75.1361 83.985 75.1369V75.1369Z" fill="#D1D5DB"/>
<path d="M83.985 100.137H46.6356C45.8402 100.136 45.0777 99.8197 44.5153 99.2573C43.9528 98.6949 43.6365 97.9323 43.6356 97.1369V95.863C43.6365 95.0676 43.9528 94.3051 44.5153 93.7426C45.0777 93.1802 45.8402 92.8639 46.6356 92.863H83.985C84.7804 92.8639 85.5429 93.1802 86.1053 93.7426C86.6678 94.3051 86.9841 95.0676 86.985 95.863V97.1369C86.9841 97.9323 86.6678 98.6949 86.1053 99.2573C85.5429 99.8197 84.7804 100.136 83.985 100.137Z" fill="#E5E7EB"/>
<path d="M25.515 130H17.515C16.3219 129.999 15.1781 129.524 14.3345 128.68C13.4908 127.837 13.0163 126.693 13.015 125.5V117.5C13.0163 116.307 13.4908 115.163 14.3345 114.319C15.1781 113.476 16.3219 113.001 17.515 113H25.515C26.7081 113.001 27.8519 113.476 28.6955 114.319C29.5392 115.163 30.0137 116.307 30.015 117.5V125.5C30.0137 126.693 29.5392 127.837 28.6955 128.68C27.8519 129.524 26.7081 129.999 25.515 130V130Z" fill="#E5E7EB"/>
<path d="M83.985 125.137H46.6356C45.8402 125.136 45.0777 124.82 44.5153 124.257C43.9528 123.695 43.6365 122.932 43.6356 122.137V120.863C43.6365 120.068 43.9528 119.305 44.5153 118.743C45.0777 118.18 45.8402 117.864 46.6356 117.863H83.985C84.7804 117.864 85.5429 118.18 86.1053 118.743C86.6678 119.305 86.9841 120.068 86.985 120.863V122.137C86.9841 122.932 86.6678 123.695 86.1053 124.257C85.5429 124.82 84.7804 125.136 83.985 125.137Z" fill="#E5E7EB"/>
<path d="M231 150H149C146.614 149.997 144.326 149.048 142.639 147.361C140.952 145.674 140.003 143.386 140 141V52C140.003 49.6139 140.952 47.3263 142.639 45.6391C144.326 43.9518 146.614 43.0027 149 43H231C233.386 43.0027 235.674 43.9518 237.361 45.6391C239.048 47.3263 239.997 49.6139 240 52V141C239.997 143.386 239.048 145.674 237.361 147.361C235.674 149.048 233.386 149.997 231 150V150ZM149 45C147.144 45.0021 145.365 45.7402 144.053 47.0526C142.74 48.3649 142.002 50.1441 142 52V141C142.002 142.856 142.74 144.635 144.053 145.947C145.365 147.26 147.144 147.998 149 148H231C232.856 147.998 234.635 147.26 235.947 145.947C237.26 144.635 237.998 142.856 238 141V52C237.998 50.1441 237.26 48.3649 235.947 47.0526C234.635 45.7402 232.856 45.0021 231 45H149Z" fill="#374151"/>
<path d="M224.675 73.5685H187.325C186.53 73.5676 185.767 73.2513 185.205 72.6888C184.643 72.1264 184.326 71.3639 184.325 70.5685V69.2946C184.326 68.4992 184.643 67.7366 185.205 67.1742C185.767 66.6118 186.53 66.2954 187.325 66.2946H224.675C225.47 66.2954 226.233 66.6118 226.795 67.1742C227.357 67.7366 227.674 68.4992 227.675 69.2946V70.5685C227.674 71.3639 227.357 72.1264 226.795 72.6888C226.233 73.2513 225.47 73.5676 224.675 73.5685V73.5685Z" fill="#D1D5DB"/>
<path d="M224.675 97.5685H155.325C154.53 97.5676 153.767 97.2513 153.205 96.6888C152.643 96.1264 152.326 95.3639 152.325 94.5685V93.2946C152.326 92.4992 152.643 91.7366 153.205 91.1742C153.767 90.6118 154.53 90.2954 155.325 90.2946H224.675C225.47 90.2954 226.233 90.6118 226.795 91.1742C227.357 91.7366 227.674 92.4992 227.675 93.2946V94.5685C227.674 95.3639 227.357 96.1264 226.795 96.6888C226.233 97.2513 225.47 97.5676 224.675 97.5685Z" fill="#D1D5DB"/>
<path d="M224.675 114.568H155.325C154.53 114.568 153.767 114.251 153.205 113.689C152.643 113.126 152.326 112.364 152.325 111.568V110.295C152.326 109.499 152.643 108.737 153.205 108.174C153.767 107.612 154.53 107.295 155.325 107.295H224.675C225.47 107.295 226.233 107.612 226.795 108.174C227.357 108.737 227.674 109.499 227.675 110.295V111.568C227.674 112.364 227.357 113.126 226.795 113.689C226.233 114.251 225.47 114.568 224.675 114.568Z" fill="#D1D5DB"/>
<path d="M224.675 131.568H155.325C154.53 131.568 153.767 131.251 153.205 130.689C152.643 130.126 152.326 129.364 152.325 128.568V127.295C152.326 126.499 152.643 125.737 153.205 125.174C153.767 124.612 154.53 124.295 155.325 124.295H224.675C225.47 124.295 226.233 124.612 226.795 125.174C227.357 125.737 227.674 126.499 227.675 127.295V128.568C227.674 129.364 227.357 130.126 226.795 130.689C226.233 131.251 225.47 131.568 224.675 131.568Z" fill="#D1D5DB"/>
<path d="M170.997 69C170.997 68.9769 171 68.9546 171 68.9315C171 67.7496 170.767 66.5793 170.315 65.4874C169.863 64.3954 169.2 63.4033 168.364 62.5675C167.528 61.7318 166.536 61.0689 165.444 60.6166C164.352 60.1643 163.182 59.9315 162 59.9315V69H170.997Z" fill="#E5E7EB"/>
<path d="M161 70V60.9315C159.223 60.9309 157.485 61.4565 156.006 62.442C154.527 63.4275 153.373 64.8289 152.689 66.4694C152.006 68.1099 151.823 69.9161 152.164 71.6602C152.506 73.4044 153.356 75.0084 154.608 76.2701C155.859 77.5318 157.456 78.3947 159.198 78.7499C160.939 79.1051 162.747 78.9369 164.393 78.2663C166.039 77.5957 167.449 76.4528 168.446 74.9817C169.444 73.5106 169.983 71.7772 169.997 70H161Z" fill="#D1D5DB"/>
</svg>
