<svg width="783" height="702" viewBox="0 0 783 702" fill="none" xmlns="http://www.w3.org/2000/svg">
<g clip-path="url(#clip0_2:29)">
<path d="M400.51 1.53016L375.064 8.09225L61.5595 88.9387L36.1132 95.5008C23.7618 98.7008 13.1842 106.67 6.70085 117.659C0.21751 128.648 -1.64203 141.76 1.53019 154.119L111.871 581.996C115.071 594.347 123.04 604.925 134.029 611.409C145.018 617.892 158.13 619.751 170.489 616.579L170.555 616.562L534.82 522.626L534.886 522.609C547.237 519.409 557.815 511.44 564.298 500.451C570.781 489.461 572.641 476.349 569.469 463.991L459.128 36.1134C455.928 23.762 447.959 13.1843 436.97 6.70093C425.981 0.217547 412.869 -1.64203 400.51 1.53016Z" fill="#E5E7EB"/>
<path d="M403.97 14.9453L373.831 22.7177L69.7117 101.144L39.5727 108.916C30.777 111.195 23.2444 116.87 18.6274 124.695C14.0105 132.521 12.6862 141.858 14.9452 150.659L125.286 578.537C127.565 587.332 133.24 594.865 141.065 599.482C148.891 604.099 158.229 605.423 167.029 603.164L167.095 603.147L531.36 509.21L531.427 509.193C540.222 506.914 547.755 501.24 552.372 493.414C556.988 485.588 558.313 476.251 556.054 467.45L445.713 39.5729C443.434 30.7773 437.759 23.2447 429.934 18.6277C422.108 14.0108 412.771 12.6865 403.97 14.9453V14.9453Z" fill="white"/>
<path d="M381.212 153.503L196.939 201.024C194.881 201.554 192.696 201.246 190.866 200.166C189.035 199.086 187.709 197.323 187.178 195.265C186.647 193.206 186.956 191.022 188.036 189.191C189.116 187.361 190.879 186.034 192.937 185.503L377.21 137.983C379.267 137.454 381.45 137.764 383.279 138.844C385.108 139.924 386.434 141.687 386.964 143.744C387.495 145.801 387.187 147.984 386.108 149.814C385.03 151.644 383.269 152.971 381.212 153.503V153.503Z" fill="#E5E7EB"/>
<path d="M419.977 171.439L203.693 227.214C201.635 227.745 199.45 227.437 197.62 226.357C195.789 225.276 194.463 223.513 193.932 221.455C193.401 219.397 193.71 217.213 194.79 215.382C195.87 213.551 197.633 212.225 199.691 211.694L415.975 155.919C418.033 155.388 420.218 155.696 422.048 156.776C423.879 157.856 425.205 159.619 425.736 161.678C426.267 163.736 425.958 165.92 424.878 167.751C423.798 169.582 422.035 170.908 419.977 171.439V171.439Z" fill="#E5E7EB"/>
<path d="M411.48 270.877L227.207 318.397C226.188 318.66 225.127 318.719 224.085 318.572C223.043 318.425 222.04 318.074 221.134 317.539C220.228 317.004 219.435 316.296 218.803 315.455C218.17 314.615 217.709 313.657 217.446 312.638C217.183 311.619 217.124 310.558 217.271 309.516C217.418 308.474 217.769 307.471 218.304 306.565C218.839 305.658 219.547 304.866 220.388 304.233C221.229 303.6 222.186 303.139 223.205 302.877L407.478 255.356C408.497 255.093 409.558 255.034 410.6 255.181C411.642 255.328 412.645 255.679 413.551 256.214C414.458 256.749 415.25 257.457 415.883 258.298C416.516 259.139 416.977 260.096 417.239 261.115C417.502 262.134 417.562 263.195 417.415 264.237C417.267 265.279 416.916 266.282 416.382 267.189C415.847 268.095 415.139 268.887 414.298 269.52C413.457 270.153 412.5 270.614 411.48 270.877V270.877Z" fill="#E5E7EB"/>
<path d="M450.245 288.813L233.962 344.588C232.942 344.851 231.882 344.91 230.839 344.763C229.797 344.616 228.794 344.265 227.888 343.73C226.982 343.195 226.189 342.487 225.557 341.646C224.924 340.805 224.463 339.848 224.2 338.829C223.937 337.81 223.878 336.749 224.025 335.707C224.172 334.665 224.523 333.662 225.058 332.755C225.593 331.849 226.301 331.057 227.142 330.424C227.983 329.791 228.94 329.33 229.959 329.067L446.243 273.292C448.301 272.761 450.486 273.07 452.317 274.15C454.147 275.23 455.474 276.993 456.005 279.051C456.535 281.109 456.227 283.294 455.147 285.125C454.067 286.955 452.304 288.282 450.245 288.813Z" fill="#E5E7EB"/>
<path d="M441.749 388.25L257.476 435.771C255.418 436.3 253.235 435.99 251.405 434.91C249.576 433.83 248.25 432.067 247.72 430.01C247.189 427.953 247.497 425.769 248.576 423.939C249.655 422.109 251.416 420.782 253.473 420.25L437.746 372.73C439.804 372.199 441.989 372.508 443.82 373.588C445.65 374.668 446.977 376.431 447.508 378.489C448.038 380.547 447.73 382.732 446.65 384.562C445.57 386.393 443.807 387.719 441.749 388.25Z" fill="#E5E7EB"/>
<path d="M480.514 406.186L264.23 461.961C263.21 462.225 262.149 462.286 261.106 462.139C260.063 461.992 259.06 461.642 258.152 461.107C257.245 460.572 256.452 459.864 255.819 459.023C255.186 458.182 254.724 457.224 254.461 456.204C254.198 455.184 254.139 454.123 254.287 453.08C254.434 452.038 254.786 451.034 255.321 450.128C255.857 449.221 256.565 448.429 257.407 447.796C258.249 447.163 259.207 446.703 260.227 446.441L476.511 390.666C478.569 390.135 480.754 390.443 482.585 391.523C484.415 392.603 485.742 394.366 486.273 396.425C486.804 398.483 486.495 400.667 485.415 402.498C484.335 404.329 482.572 405.655 480.514 406.186V406.186Z" fill="#E5E7EB"/>
<path d="M165.481 249.749L100.269 266.566C99.2817 266.819 98.2347 266.671 97.3572 266.153C96.4798 265.635 95.8435 264.791 95.588 263.804L80.6185 205.756C80.3652 204.769 80.5137 203.722 81.0314 202.845C81.549 201.967 82.3937 201.331 83.38 201.075L148.592 184.258C149.579 184.005 150.626 184.154 151.504 184.671C152.381 185.189 153.018 186.034 153.273 187.02L168.243 245.068C168.496 246.055 168.347 247.102 167.83 247.979C167.312 248.857 166.467 249.493 165.481 249.749V249.749Z" fill="#E5E7EB"/>
<path d="M195.749 367.122L130.537 383.939C129.55 384.193 128.503 384.044 127.625 383.526C126.748 383.009 126.112 382.164 125.856 381.178L110.887 323.13C110.633 322.143 110.782 321.096 111.3 320.218C111.817 319.341 112.662 318.705 113.648 318.449L178.861 301.632C179.847 301.379 180.894 301.527 181.772 302.045C182.649 302.563 183.286 303.407 183.541 304.393L198.511 362.442C198.764 363.428 198.616 364.475 198.098 365.353C197.58 366.23 196.736 366.867 195.749 367.122V367.122Z" fill="#E5E7EB"/>
<path d="M226.018 484.496L160.805 501.313C159.818 501.566 158.771 501.418 157.894 500.9C157.016 500.382 156.38 499.538 156.125 498.551L141.155 440.503C140.902 439.516 141.05 438.469 141.568 437.592C142.086 436.714 142.93 436.078 143.916 435.822L209.129 419.005C210.116 418.752 211.163 418.901 212.04 419.418C212.918 419.936 213.554 420.781 213.81 421.767L228.779 479.815C229.032 480.802 228.884 481.849 228.366 482.726C227.849 483.604 227.004 484.24 226.018 484.496V484.496Z" fill="#E5E7EB"/>
<path d="M654.659 109.992H278.34C265.581 110.006 253.349 115.081 244.327 124.103C235.305 133.125 230.23 145.358 230.215 158.117V599.993C230.23 612.752 235.305 624.984 244.327 634.006C253.349 643.028 265.581 648.103 278.34 648.118H654.659C667.418 648.103 679.65 643.028 688.672 634.006C697.694 624.984 702.769 612.752 702.784 599.993V158.117C702.769 145.358 697.694 133.125 688.672 124.103C679.65 115.081 667.418 110.006 654.659 109.992V109.992Z" fill="#D1D5DB"/>
<path d="M654.659 123.846H278.34C269.254 123.856 260.543 127.47 254.118 133.895C247.693 140.32 244.08 149.031 244.069 158.117V599.993C244.08 609.079 247.693 617.79 254.118 624.215C260.543 630.639 269.254 634.253 278.34 634.263H654.659C663.745 634.253 672.456 630.639 678.881 624.214C685.306 617.79 688.92 609.079 688.93 599.993V158.117C688.92 149.031 685.306 140.32 678.881 133.895C672.456 127.47 663.745 123.856 654.659 123.846V123.846Z" fill="white"/>
<path d="M631.081 514.917H407.721C406.668 514.918 405.625 514.711 404.652 514.309C403.678 513.907 402.794 513.317 402.049 512.573C401.303 511.828 400.712 510.944 400.309 509.971C399.906 508.999 399.698 507.956 399.698 506.903C399.698 505.849 399.906 504.806 400.309 503.834C400.712 502.861 401.303 501.977 402.049 501.232C402.794 500.488 403.678 499.898 404.652 499.496C405.625 499.094 406.668 498.887 407.721 498.888H631.081C632.134 498.887 633.177 499.094 634.151 499.496C635.124 499.898 636.009 500.488 636.754 501.232C637.499 501.977 638.09 502.861 638.493 503.834C638.897 504.806 639.104 505.849 639.104 506.903C639.104 507.956 638.897 508.999 638.493 509.971C638.09 510.944 637.499 511.828 636.754 512.573C636.009 513.317 635.124 513.907 634.151 514.309C633.177 514.711 632.134 514.918 631.081 514.917Z" fill="#E5E7EB"/>
<path d="M598.023 487.869H407.721C406.668 487.87 405.625 487.664 404.652 487.262C403.678 486.859 402.794 486.269 402.049 485.525C401.303 484.781 400.712 483.897 400.309 482.924C399.906 481.951 399.698 480.908 399.698 479.855C399.698 478.802 399.906 477.759 400.309 476.786C400.712 475.813 401.303 474.929 402.049 474.185C402.794 473.441 403.678 472.85 404.652 472.448C405.625 472.046 406.668 471.84 407.721 471.841H598.023C600.148 471.841 602.187 472.685 603.69 474.188C605.193 475.691 606.037 477.729 606.037 479.855C606.037 481.98 605.193 484.019 603.69 485.522C602.187 487.025 600.148 487.869 598.023 487.869V487.869Z" fill="#E5E7EB"/>
<path d="M365.092 527.195H297.747C296.728 527.194 295.751 526.789 295.031 526.068C294.31 525.348 293.905 524.371 293.904 523.352V463.405C293.905 462.386 294.31 461.409 295.031 460.689C295.751 459.969 296.728 459.563 297.747 459.562H365.092C366.111 459.563 367.088 459.969 367.809 460.689C368.529 461.409 368.934 462.386 368.935 463.405V523.352C368.934 524.371 368.529 525.348 367.809 526.068C367.088 526.789 366.111 527.194 365.092 527.195V527.195Z" fill="#E5E7EB"/>
<path d="M631.081 393.703H407.721C406.668 393.704 405.625 393.498 404.652 393.096C403.678 392.693 402.794 392.103 402.049 391.359C401.303 390.615 400.712 389.731 400.309 388.758C399.906 387.785 399.698 386.742 399.698 385.689C399.698 384.636 399.906 383.593 400.309 382.62C400.712 381.647 401.303 380.763 402.049 380.019C402.794 379.275 403.678 378.685 404.652 378.282C405.625 377.88 406.668 377.674 407.721 377.675H631.081C633.207 377.675 635.245 378.519 636.748 380.022C638.251 381.525 639.095 383.564 639.095 385.689C639.095 387.815 638.251 389.853 636.748 391.356C635.245 392.859 633.207 393.703 631.081 393.703Z" fill="#E5E7EB"/>
<path d="M598.023 366.656H407.721C406.668 366.657 405.625 366.45 404.652 366.048C403.678 365.646 402.794 365.056 402.049 364.311C401.303 363.567 400.712 362.683 400.309 361.71C399.906 360.737 399.698 359.695 399.698 358.641C399.698 357.588 399.906 356.545 400.309 355.572C400.712 354.6 401.303 353.716 402.049 352.971C402.794 352.227 403.678 351.637 404.652 351.235C405.625 350.833 406.668 350.626 407.721 350.627H598.023C600.147 350.63 602.183 351.475 603.684 352.978C605.185 354.48 606.028 356.517 606.028 358.641C606.028 360.765 605.185 362.802 603.684 364.305C602.183 365.808 600.147 366.653 598.023 366.656V366.656Z" fill="#E5E7EB"/>
<path d="M365.092 405.982H297.747C296.728 405.981 295.751 405.575 295.031 404.855C294.31 404.134 293.905 403.158 293.904 402.139V342.192C293.905 341.173 294.31 340.196 295.031 339.476C295.751 338.755 296.728 338.35 297.747 338.349H365.092C366.111 338.35 367.088 338.755 367.809 339.476C368.529 340.196 368.934 341.173 368.935 342.192V402.139C368.934 403.158 368.529 404.134 367.809 404.855C367.088 405.575 366.111 405.981 365.092 405.982V405.982Z" fill="#E5E7EB"/>
<path d="M598.234 231.721H457.932C455.807 231.721 453.768 230.877 452.266 229.374C450.763 227.871 449.918 225.832 449.918 223.707C449.918 221.581 450.763 219.543 452.266 218.04C453.768 216.537 455.807 215.693 457.932 215.693H598.234C600.36 215.693 602.398 216.537 603.901 218.04C605.404 219.543 606.248 221.581 606.248 223.707C606.248 225.832 605.404 227.871 603.901 229.374C602.398 230.877 600.36 231.721 598.234 231.721Z" fill="#E5E7EB"/>
<path d="M631.292 258.769H457.932C456.88 258.769 455.838 258.561 454.866 258.159C453.893 257.756 453.01 257.166 452.266 256.421C451.521 255.677 450.931 254.794 450.528 253.821C450.126 252.849 449.918 251.807 449.918 250.755C449.918 249.702 450.126 248.66 450.528 247.688C450.931 246.715 451.521 245.832 452.266 245.088C453.01 244.343 453.893 243.753 454.866 243.35C455.838 242.948 456.88 242.74 457.932 242.74H631.292C633.418 242.74 635.456 243.585 636.959 245.088C638.462 246.591 639.306 248.629 639.306 250.755C639.306 252.88 638.462 254.918 636.959 256.421C635.456 257.924 633.418 258.769 631.292 258.769V258.769Z" fill="#E5E7EB"/>
<path d="M426.881 291.547H297.535C296.517 291.546 295.54 291.141 294.819 290.42C294.099 289.7 293.694 288.723 293.693 287.704V186.757C293.694 185.738 294.099 184.761 294.819 184.041C295.54 183.321 296.517 182.915 297.535 182.914H426.881C427.9 182.915 428.877 183.321 429.597 184.041C430.318 184.761 430.723 185.738 430.724 186.757V287.704C430.723 288.723 430.318 289.7 429.597 290.42C428.877 291.141 427.9 291.546 426.881 291.547V291.547Z" fill="#E5E7EB"/>
<path d="M694.194 701.88C742.712 701.88 782.044 662.548 782.044 614.03C782.044 565.511 742.712 526.179 694.194 526.179C645.676 526.179 606.344 565.511 606.344 614.03C606.344 662.548 645.676 701.88 694.194 701.88Z" fill="#D1D5DB"/>
<path d="M736.209 602.571H705.653V572.014C705.653 568.975 704.446 566.061 702.297 563.912C700.148 561.763 697.233 560.555 694.194 560.555C691.155 560.555 688.24 561.763 686.091 563.912C683.943 566.061 682.735 568.975 682.735 572.014V602.571H652.179C649.14 602.571 646.225 603.778 644.076 605.927C641.927 608.076 640.72 610.991 640.72 614.03C640.72 617.069 641.927 619.983 644.076 622.132C646.225 624.281 649.14 625.488 652.179 625.488H682.735V656.045C682.735 659.084 683.943 661.999 686.091 664.148C688.24 666.297 691.155 667.504 694.194 667.504C697.233 667.504 700.148 666.297 702.297 664.148C704.446 661.999 705.653 659.084 705.653 656.045V625.488H736.209C739.248 625.488 742.163 624.281 744.312 622.132C746.461 619.983 747.668 617.069 747.668 614.03C747.668 610.991 746.461 608.076 744.312 605.927C742.163 603.778 739.248 602.571 736.209 602.571V602.571Z" fill="white"/>
</g>
<defs>
<clipPath id="clip0_2:29">
<rect width="782.044" height="701.88" fill="white"/>
</clipPath>
</defs>
</svg>
