<svg width="334" height="390" viewBox="0 0 334 390" fill="none" xmlns="http://www.w3.org/2000/svg">
<path d="M315.228 189.548H116.075C112.657 189.544 109.379 188.184 106.962 185.767C104.545 183.35 103.185 180.072 103.181 176.653V20.2358C103.184 17.7313 104.18 15.3301 105.951 13.5591C107.722 11.7881 110.123 10.7918 112.627 10.7889H318.513C321.061 10.7918 323.503 11.8053 325.305 13.6069C327.107 15.4086 328.12 17.8513 328.123 20.3992V176.653C328.119 180.072 326.759 183.35 324.342 185.767C321.924 188.184 318.647 189.544 315.228 189.548Z" fill="#F3F4F6" fill-opacity="0.8"/>
<path d="M128.579 176.653H302.725C306.041 176.653 309.221 175.336 311.566 172.991C313.911 170.646 315.228 167.466 315.228 164.15V44.154C315.228 40.8378 313.911 37.6574 311.566 35.3125C309.221 32.9676 306.041 31.6502 302.725 31.6502H128.579C125.263 31.6502 122.083 32.9676 119.738 35.3125C117.393 37.6574 116.076 40.8378 116.076 44.154V164.15C116.076 167.466 117.393 170.646 119.738 172.991C122.083 175.336 125.263 176.653 128.579 176.653Z" fill="white"/>
<path d="M327.943 19.4982H103V12.9335C103.005 9.50343 104.37 6.21543 106.796 3.79078C109.223 1.36613 112.511 0.00284412 115.941 0H315.002C318.432 0.00281726 321.721 1.3661 324.147 3.79075C326.573 6.2154 327.938 9.50342 327.943 12.9335V19.4982Z" fill="#D1D5DB" fill-opacity="0.8"/>
<path d="M126.519 13.116C128.368 13.116 129.866 11.6173 129.866 9.76857C129.866 7.91984 128.368 6.42114 126.519 6.42114C124.67 6.42114 123.172 7.91984 123.172 9.76857C123.172 11.6173 124.67 13.116 126.519 13.116Z" fill="white"/>
<path d="M139.225 13.116C141.074 13.116 142.573 11.6173 142.573 9.76857C142.573 7.91984 141.074 6.42114 139.225 6.42114C137.376 6.42114 135.878 7.91984 135.878 9.76857C135.878 11.6173 137.376 13.116 139.225 13.116Z" fill="white"/>
<path d="M151.931 13.116C153.78 13.116 155.279 11.6173 155.279 9.76857C155.279 7.91984 153.78 6.42114 151.931 6.42114C150.082 6.42114 148.584 7.91984 148.584 9.76857C148.584 11.6173 150.082 13.116 151.931 13.116Z" fill="white"/>
<path d="M141.394 87.8828H132.77C132.302 87.8823 131.854 87.6963 131.523 87.3656C131.192 87.0348 131.006 86.5864 131.006 86.1187V77.4942C131.006 77.0265 131.192 76.5781 131.523 76.2474C131.854 75.9167 132.302 75.7307 132.77 75.7301H141.394C141.862 75.7307 142.31 75.9167 142.641 76.2474C142.972 76.5781 143.158 77.0265 143.158 77.4942V86.1187C143.158 86.5864 142.972 87.0348 142.641 87.3656C142.31 87.6963 141.862 87.8823 141.394 87.8828Z" fill="#E5E7EB" fill-opacity="0.8"/>
<path d="M141.394 110.228H132.77C132.302 110.228 131.854 110.042 131.523 109.711C131.192 109.38 131.006 108.932 131.006 108.464V99.8395C131.006 99.3718 131.192 98.9234 131.523 98.5927C131.854 98.262 132.302 98.0759 132.77 98.0754H141.394C141.862 98.0759 142.31 98.262 142.641 98.5927C142.972 98.9234 143.158 99.3718 143.158 99.8395V108.464C143.158 108.932 142.972 109.38 142.641 109.711C142.31 110.042 141.862 110.228 141.394 110.228Z" fill="#6B7280" fill-opacity="0.8"/>
<path d="M141.394 132.573H132.77C132.302 132.573 131.854 132.387 131.523 132.056C131.192 131.725 131.006 131.277 131.006 130.809V122.185C131.006 121.717 131.192 121.269 131.523 120.938C131.854 120.607 132.302 120.421 132.77 120.421H141.394C141.862 120.421 142.31 120.607 142.641 120.938C142.972 121.269 143.158 121.717 143.158 122.185V130.809C143.158 131.277 142.972 131.725 142.641 132.056C142.31 132.387 141.862 132.573 141.394 132.573Z" fill="#D1D5DB" fill-opacity="0.8"/>
<path d="M197.846 83.5706H156.291C155.824 83.5696 155.376 83.3833 155.046 83.0526C154.716 82.7219 154.531 82.2737 154.531 81.8065C154.531 81.3393 154.716 80.8911 155.046 80.5604C155.376 80.2297 155.824 80.0434 156.291 80.0424H197.846C198.078 80.0419 198.307 80.0872 198.522 80.1756C198.736 80.264 198.931 80.3939 199.095 80.5578C199.26 80.7216 199.39 80.9163 199.479 81.1305C199.568 81.3448 199.613 81.5745 199.613 81.8065C199.613 82.0385 199.568 82.2682 199.479 82.4824C199.39 82.6967 199.26 82.8913 199.095 83.0552C198.931 83.2191 198.736 83.3489 198.522 83.4374C198.307 83.5258 198.078 83.5711 197.846 83.5706Z" fill="#D1D5DB" fill-opacity="0.8"/>
<path d="M197.846 105.916H156.291C155.824 105.915 155.376 105.729 155.046 105.398C154.716 105.067 154.531 104.619 154.531 104.152C154.531 103.685 154.716 103.236 155.046 102.906C155.376 102.575 155.824 102.389 156.291 102.388H197.846C198.313 102.388 198.762 102.574 199.093 102.904C199.424 103.235 199.61 103.684 199.61 104.152C199.61 104.62 199.424 105.068 199.093 105.399C198.762 105.73 198.313 105.916 197.846 105.916Z" fill="#D1D5DB" fill-opacity="0.8"/>
<path d="M197.846 128.261H156.291C155.824 128.26 155.376 128.074 155.046 127.743C154.716 127.412 154.531 126.964 154.531 126.497C154.531 126.03 154.716 125.582 155.046 125.251C155.376 124.92 155.824 124.734 156.291 124.733H197.846C198.078 124.732 198.307 124.778 198.522 124.866C198.736 124.955 198.931 125.084 199.095 125.248C199.26 125.412 199.39 125.607 199.479 125.821C199.568 126.035 199.613 126.265 199.613 126.497C199.613 126.729 199.568 126.959 199.479 127.173C199.39 127.387 199.26 127.582 199.095 127.746C198.931 127.91 198.736 128.04 198.522 128.128C198.307 128.216 198.078 128.262 197.846 128.261Z" fill="#D1D5DB" fill-opacity="0.8"/>
<path d="M300.229 104.712C300.273 103.97 300.298 103.224 300.298 102.471C300.298 92.6637 296.402 83.2582 289.467 76.3234C282.533 69.3887 273.127 65.4928 263.32 65.4928V104.712H300.229Z" fill="#E5E7EB" fill-opacity="0.8"/>
<path d="M260.519 108.074V68.8544C253.3 68.8542 246.24 70.9664 240.208 74.9308C234.176 78.8952 229.436 84.5383 226.573 91.1643C223.709 97.7903 222.848 105.109 224.095 112.219C225.341 119.329 228.641 125.918 233.588 131.175C238.535 136.431 244.912 140.125 251.933 141.801C258.954 143.476 266.312 143.06 273.1 140.604C279.887 138.148 285.807 133.759 290.13 127.978C294.453 122.198 296.99 115.279 297.427 108.074H260.519Z" fill="#6B7280" fill-opacity="0.8"/>
<path d="M260.561 389.255L12.9604 325.42C8.7113 324.32 5.0723 321.579 2.8417 317.798C0.611102 314.018 -0.0288997 309.507 1.0621 305.256L51.199 110.786C52.005 107.673 54.013 105.007 56.783 103.373C59.552 101.739 62.857 101.27 65.972 102.069L321.943 168.062C325.11 168.882 327.822 170.925 329.484 173.743C331.147 176.56 331.624 179.922 330.811 183.091L280.726 377.357C279.625 381.606 276.884 385.245 273.104 387.476C269.324 389.706 264.813 390.346 260.561 389.255Z" fill="#F3F4F6"/>
<path d="M32.6392 313.397L249.149 369.216C253.272 370.279 257.648 369.66 261.315 367.497C264.982 365.333 267.639 361.801 268.702 357.678L307.165 208.491C308.228 204.368 307.61 199.992 305.446 196.325C303.282 192.658 299.75 190.001 295.627 188.938L79.117 133.118C74.994 132.056 70.618 132.674 66.951 134.838C63.284 137.001 60.627 140.533 59.564 144.656L21.1014 293.843C20.0385 297.966 20.6569 302.343 22.8206 306.01C24.9844 309.677 28.5162 312.334 32.6392 313.397Z" fill="white"/>
<path d="M330.876 181.913L51.21 109.811L53.315 101.649C54.42 97.3866 57.172 93.7363 60.965 91.4995C64.759 89.2626 69.285 88.6219 73.55 89.7178L321.036 153.523C325.3 154.626 328.952 157.375 331.191 161.167C333.43 164.96 334.074 169.485 332.98 173.751L330.876 181.913Z" fill="#D1D5DB"/>
<path d="M84.771 109.38C87.05 108.717 88.36 106.332 87.697 104.053C87.033 101.774 84.648 100.463 82.369 101.127C80.09 101.79 78.78 104.175 79.443 106.454C80.106 108.733 82.491 110.043 84.771 109.38Z" fill="white"/>
<path d="M100.568 113.453C102.847 112.79 104.157 110.404 103.494 108.125C102.83 105.846 100.445 104.536 98.166 105.199C95.887 105.862 94.577 108.248 95.24 110.527C95.903 112.806 98.288 114.116 100.568 113.453Z" fill="white"/>
<path d="M116.365 117.525C118.644 116.862 119.954 114.477 119.291 112.198C118.627 109.919 116.242 108.609 113.963 109.272C111.684 109.935 110.374 112.32 111.037 114.599C111.7 116.879 114.085 118.189 116.365 117.525Z" fill="white"/>
<path d="M284.838 221.506L284.701 222.036L287.884 222.857L288.021 222.327L284.838 221.506Z" fill="#E5E7EB"/>
<path d="M278.27 220.378L271.84 218.721L271.977 218.19L278.407 219.848L278.27 220.378ZM265.409 217.063L258.979 215.405L259.116 214.874L265.546 216.532L265.409 217.063ZM252.548 213.747L246.118 212.089L246.254 211.558L252.685 213.216L252.548 213.747ZM239.687 210.431L233.256 208.773L233.393 208.243L239.824 209.901L239.687 210.431ZM226.826 207.115L220.395 205.457L220.532 204.927L226.962 206.585L226.826 207.115ZM213.964 203.8L207.534 202.142L207.671 201.611L214.101 203.269L213.964 203.8ZM201.103 200.484L194.673 198.826L194.81 198.295L201.24 199.953L201.103 200.484ZM188.242 197.168L181.812 195.51L181.948 194.98L188.379 196.637L188.242 197.168ZM175.381 193.852L168.95 192.194L169.087 191.664L175.518 193.322L175.381 193.852ZM162.52 190.536L156.089 188.878L156.226 188.348L162.656 190.006L162.52 190.536ZM149.659 187.221L143.228 185.563L143.365 185.032L149.795 186.69L149.659 187.221ZM136.797 183.905L130.367 182.247L130.504 181.716L136.934 183.374L136.797 183.905ZM123.936 180.589L117.506 178.931L117.642 178.401L124.073 180.059L123.936 180.589ZM111.075 177.273L104.644 175.615L104.781 175.085L111.212 176.743L111.075 177.273ZM98.214 173.957L91.783 172.3L91.92 171.769L98.351 173.427L98.214 173.957ZM85.352 170.642L78.922 168.984L79.059 168.453L85.489 170.111L85.352 170.642Z" fill="#E5E7EB"/>
<path d="M69.445 165.975L69.308 166.505L72.491 167.326L72.628 166.795L69.445 165.975Z" fill="#E5E7EB"/>
<path d="M167.604 243.9L167.467 244.43L170.651 245.251L170.787 244.72L167.604 243.9Z" fill="#E5E7EB"/>
<path d="M161.132 242.797L154.797 241.164L154.934 240.633L161.269 242.266L161.132 242.797ZM148.462 239.53L142.127 237.897L142.264 237.366L148.599 239L148.462 239.53ZM135.792 236.264L129.457 234.631L129.594 234.1L135.929 235.733L135.792 236.264ZM123.122 232.997L116.787 231.364L116.923 230.833L123.258 232.467L123.122 232.997ZM110.452 229.731L104.116 228.097L104.253 227.567L110.588 229.2L110.452 229.731ZM97.781 226.464L91.446 224.831L91.583 224.3L97.918 225.934L97.781 226.464ZM85.111 223.198L78.776 221.564L78.913 221.034L85.248 222.667L85.111 223.198ZM72.441 219.931L66.106 218.298L66.243 217.767L72.578 219.4L72.441 219.931Z" fill="#E5E7EB"/>
<path d="M56.725 215.313L56.588 215.844L59.771 216.665L59.908 216.134L56.725 215.313Z" fill="#E5E7EB"/>
<path d="M99.515 251.24L99.378 251.77L102.561 252.591L102.698 252.06L99.515 251.24Z" fill="#E5E7EB"/>
<path d="M92.86 250.09L86.342 248.41L86.479 247.879L92.997 249.559L92.86 250.09ZM79.824 246.729L73.306 245.049L73.443 244.518L79.961 246.199L79.824 246.729ZM66.788 243.368L60.271 241.688L60.407 241.158L66.925 242.838L66.788 243.368Z" fill="#E5E7EB"/>
<path d="M50.706 238.656L50.57 239.187L53.753 240.008L53.89 239.477L50.706 238.656Z" fill="#E5E7EB"/>
<path d="M89.245 291.076L89.108 291.606L92.291 292.427L92.428 291.896L89.245 291.076Z" fill="#E5E7EB"/>
<path d="M82.59 289.926L76.072 288.245L76.209 287.715L82.727 289.395L82.59 289.926ZM69.554 286.565L63.036 284.884L63.173 284.354L69.691 286.034L69.554 286.565ZM56.518 283.204L50.001 281.524L50.137 280.993L56.655 282.673L56.518 283.204Z" fill="#E5E7EB"/>
<path d="M40.4363 278.492L40.2996 279.023L43.4827 279.843L43.6195 279.313L40.4363 278.492Z" fill="#E5E7EB"/>
<path d="M58.141 284.056L241.619 331.359C246.062 332.5 250.777 331.831 254.728 329.499C258.68 327.168 261.545 323.364 262.695 318.923L285.992 228.561L285.626 228.478L189.603 285.134L172.026 255.352C171.702 254.801 171.256 254.332 170.721 253.983C170.187 253.633 169.578 253.412 168.944 253.336C167.979 253.24 167.01 253.464 166.185 253.974L115.864 283.662L103.012 261.889C102.734 261.418 102.367 261.008 101.931 260.679C101.495 260.351 100.999 260.112 100.471 259.976C99.942 259.84 99.392 259.809 98.852 259.886C98.312 259.962 97.792 260.144 97.322 260.422C96.983 260.626 64.339 280.289 58.141 284.056Z" fill="#E5E7EB"/>
<path d="M57.458 284.246C57.328 284.322 57.16 284.279 57.083 284.149C57.006 284.019 57.049 283.851 57.18 283.774L97.211 260.153C98.275 259.527 99.544 259.348 100.74 259.656C101.935 259.964 102.96 260.734 103.588 261.797L113.643 278.838C115.046 281.216 118.112 282.006 120.49 280.603L166.225 253.617C167.289 252.99 168.558 252.812 169.753 253.12C170.949 253.428 171.973 254.198 172.602 255.261L187.382 280.309C188.785 282.687 191.851 283.478 194.229 282.074L286.21 227.8C286.34 227.723 286.508 227.767 286.585 227.897C286.662 228.027 286.618 228.195 286.488 228.272L194.036 282.825C191.657 284.228 188.592 283.438 187.188 281.059L172.13 255.539C171.856 255.075 171.493 254.668 171.062 254.344C170.63 254.02 170.14 253.783 169.617 253.649C169.095 253.514 168.551 253.483 168.016 253.559C167.482 253.634 166.968 253.814 166.503 254.089L120.297 281.353C117.919 282.756 114.853 281.966 113.45 279.588L103.116 262.076C102.562 261.138 101.658 260.459 100.603 260.187C99.548 259.915 98.428 260.072 97.489 260.625L57.458 284.246Z" fill="#374151"/>
<path d="M103.701 256.008C105.735 255.416 106.904 253.288 106.312 251.254C105.72 249.221 103.592 248.052 101.558 248.643C99.524 249.235 98.355 251.363 98.947 253.397C99.539 255.431 101.667 256.6 103.701 256.008Z" fill="#374151"/>
<path d="M171.79 248.668C173.824 248.076 174.993 245.948 174.401 243.914C173.81 241.88 171.681 240.711 169.648 241.303C167.614 241.895 166.445 244.023 167.037 246.057C167.628 248.091 169.757 249.26 171.79 248.668Z" fill="#374151"/>
<path d="M287.167 224.718C289.201 224.126 290.37 221.998 289.778 219.964C289.186 217.93 287.058 216.761 285.024 217.353C282.99 217.945 281.821 220.073 282.413 222.107C283.005 224.141 285.133 225.309 287.167 224.718Z" fill="#374151"/>
</svg>
