<svg width="310" height="293" viewBox="0 0 310 293" fill="none" xmlns="http://www.w3.org/2000/svg">
<rect x="143" y="20" width="153" height="214" rx="16" fill="white" stroke="#F3F4F6" stroke-width="2"/>
<path d="M261.5 105.584H177.5C175.246 105.582 173.086 104.686 171.492 103.092C169.899 101.499 169.002 99.338 169 97.0845V57.0845C169.002 54.8309 169.899 52.6704 171.492 51.0768C173.086 49.4833 175.246 48.587 177.5 48.5845H261.5C263.753 48.5871 265.914 49.4834 267.507 51.0769C269.101 52.6704 269.997 54.8309 270 57.0845V97.0845C269.997 99.338 269.101 101.499 267.507 103.092C265.914 104.686 263.753 105.582 261.5 105.584Z" fill="#F3F4F6"/>
<path d="M255.5 143.084H183.5C181.378 143.084 179.343 142.241 177.843 140.741C176.343 139.241 175.5 137.206 175.5 135.084C175.5 132.963 176.343 130.928 177.843 129.427C179.343 127.927 181.378 127.084 183.5 127.084H255.5C257.622 127.084 259.657 127.927 261.157 129.427C262.657 130.928 263.5 132.963 263.5 135.084C263.5 137.206 262.657 139.241 261.157 140.741C259.657 142.241 257.622 143.084 255.5 143.084Z" fill="#F3F4F6"/>
<path d="M255.5 173.084H183.5C181.378 173.084 179.343 172.241 177.843 170.741C176.343 169.241 175.5 167.206 175.5 165.084C175.5 162.963 176.343 160.928 177.843 159.427C179.343 157.927 181.378 157.084 183.5 157.084H255.5C257.622 157.084 259.657 157.927 261.157 159.427C262.657 160.928 263.5 162.963 263.5 165.084C263.5 167.206 262.657 169.241 261.157 170.741C259.657 172.241 257.622 173.084 255.5 173.084Z" fill="#F3F4F6"/>
<path d="M255.5 203.084H183.5C181.378 203.084 179.343 202.241 177.843 200.741C176.343 199.241 175.5 197.206 175.5 195.084C175.5 192.963 176.343 190.928 177.843 189.427C179.343 187.927 181.378 187.084 183.5 187.084H255.5C257.622 187.084 259.657 187.927 261.157 189.427C262.657 190.928 263.5 192.963 263.5 195.084C263.5 197.206 262.657 199.241 261.157 200.741C259.657 202.241 257.622 203.084 255.5 203.084Z" fill="#F3F4F6"/>
<path d="M287 46C299.702 46 310 35.7025 310 23C310 10.2975 299.702 0 287 0C274.297 0 264 10.2975 264 23C264 35.7025 274.297 46 287 46Z" fill="#F3F4F6"/>
<path d="M284.72 31.774C284.203 31.775 283.699 31.6076 283.285 31.2972L283.259 31.278L277.854 27.1396C277.602 26.9482 277.391 26.7091 277.232 26.4359C277.073 26.1627 276.97 25.8609 276.928 25.5476C276.886 25.2343 276.906 24.9159 276.987 24.6104C277.069 24.305 277.209 24.0186 277.402 23.7677C277.594 23.5168 277.834 23.3064 278.107 23.1484C278.381 22.9904 278.683 22.888 278.997 22.8471C279.31 22.8061 279.629 22.8275 279.934 22.9099C280.239 22.9923 280.525 23.1341 280.775 23.3272L284.276 26.0118L292.55 15.2219C292.741 14.9716 292.981 14.7616 293.254 14.6038C293.527 14.446 293.828 14.3436 294.141 14.3023C294.454 14.2611 294.771 14.2818 295.076 14.3633C295.381 14.4448 295.666 14.5855 295.916 14.7774L295.865 14.8473L295.918 14.7785C296.423 15.1664 296.753 15.7388 296.836 16.37C296.92 17.0012 296.749 17.6396 296.362 18.1453L286.631 30.8368C286.406 31.1292 286.116 31.3659 285.785 31.5285C285.453 31.691 285.089 31.775 284.72 31.774V31.774Z" fill="white"/>
<rect x="72" y="50" width="153" height="214" rx="16" fill="white" stroke="#D1D5DB" stroke-width="2"/>
<path d="M190.5 135.584H106.5C104.246 135.582 102.086 134.686 100.492 133.092C98.8987 131.499 98.0024 129.338 97.9999 127.084V87.0845C98.0024 84.8309 98.8987 82.6704 100.492 81.0768C102.086 79.4833 104.246 78.587 106.5 78.5845H190.5C192.753 78.5871 194.914 79.4834 196.507 81.0769C198.101 82.6704 198.997 84.8309 199 87.0845V127.084C198.997 129.338 198.101 131.499 196.507 133.092C194.914 134.686 192.753 135.582 190.5 135.584Z" fill="#E2E8F0"/>
<path d="M184.5 173.084H112.5C110.378 173.084 108.343 172.241 106.843 170.741C105.343 169.241 104.5 167.206 104.5 165.084C104.5 162.963 105.343 160.928 106.843 159.427C108.343 157.927 110.378 157.084 112.5 157.084H184.5C186.622 157.084 188.657 157.927 190.157 159.427C191.657 160.928 192.5 162.963 192.5 165.084C192.5 167.206 191.657 169.241 190.157 170.741C188.657 172.241 186.622 173.084 184.5 173.084Z" fill="#E2E8F0"/>
<path d="M184.5 203.084H112.5C110.378 203.084 108.343 202.241 106.843 200.741C105.343 199.241 104.5 197.206 104.5 195.084C104.5 192.963 105.343 190.928 106.843 189.427C108.343 187.927 110.378 187.084 112.5 187.084H184.5C186.622 187.084 188.657 187.927 190.157 189.427C191.657 190.928 192.5 192.963 192.5 195.084C192.5 197.206 191.657 199.241 190.157 200.741C188.657 202.241 186.622 203.084 184.5 203.084Z" fill="#E2E8F0"/>
<path d="M184.5 233.084H112.5C110.378 233.084 108.343 232.241 106.843 230.741C105.343 229.241 104.5 227.206 104.5 225.084C104.5 222.963 105.343 220.928 106.843 219.427C108.343 217.927 110.378 217.084 112.5 217.084H184.5C186.622 217.084 188.657 217.927 190.157 219.427C191.657 220.928 192.5 222.963 192.5 225.084C192.5 227.206 191.657 229.241 190.157 230.741C188.657 232.241 186.622 233.084 184.5 233.084Z" fill="#E2E8F0"/>
<path d="M216 76C228.702 76 239 65.7025 239 53C239 40.2975 228.702 30 216 30C203.297 30 193 40.2975 193 53C193 65.7025 203.297 76 216 76Z" fill="#D1D5DB"/>
<path d="M213.72 61.774C213.203 61.775 212.699 61.6076 212.285 61.2972L212.259 61.278L206.854 57.1396C206.602 56.9482 206.391 56.7091 206.232 56.4359C206.073 56.1627 205.97 55.8609 205.928 55.5476C205.886 55.2343 205.906 54.9159 205.987 54.6104C206.069 54.305 206.209 54.0186 206.402 53.7677C206.594 53.5168 206.834 53.3064 207.107 53.1484C207.381 52.9904 207.683 52.888 207.997 52.8471C208.31 52.8061 208.629 52.8275 208.934 52.9099C209.239 52.9923 209.525 53.1341 209.775 53.3272L213.276 56.0118L221.55 45.2219C221.741 44.9716 221.981 44.7616 222.254 44.6038C222.527 44.446 222.828 44.3436 223.141 44.3023C223.454 44.2611 223.771 44.2818 224.076 44.3633C224.381 44.4448 224.666 44.5855 224.916 44.7774L224.865 44.8473L224.918 44.7785C225.423 45.1664 225.753 45.7388 225.836 46.37C225.92 47.0012 225.749 47.6396 225.362 48.1453L215.631 60.8368C215.406 61.1292 215.116 61.3659 214.785 61.5285C214.453 61.691 214.089 61.775 213.72 61.774V61.774Z" fill="white"/>
<rect x="1" y="78" width="153" height="214" rx="16" fill="white" stroke="#374151" stroke-width="2"/>
<path d="M113.5 122.084H41.5001C39.3783 122.084 37.3435 121.241 35.8432 119.741C34.3429 118.241 33.5001 116.206 33.5001 114.084C33.5001 111.963 34.3429 109.928 35.8432 108.427C37.3435 106.927 39.3783 106.084 41.5001 106.084H113.5C115.622 106.084 117.657 106.927 119.157 108.427C120.657 109.928 121.5 111.963 121.5 114.084C121.5 116.206 120.657 118.241 119.157 119.741C117.657 121.241 115.622 122.084 113.5 122.084Z" fill="#D1D5DB"/>
<path d="M113.5 152.084H41.5001C39.3783 152.084 37.3435 151.241 35.8432 149.741C34.3429 148.241 33.5001 146.206 33.5001 144.084C33.5001 141.963 34.3429 139.928 35.8432 138.427C37.3435 136.927 39.3783 136.084 41.5001 136.084H113.5C115.622 136.084 117.657 136.927 119.157 138.427C120.657 139.928 121.5 141.963 121.5 144.084C121.5 146.206 120.657 148.241 119.157 149.741C117.657 151.241 115.622 152.084 113.5 152.084Z" fill="#D1D5DB"/>
<path d="M119.5 228.584H35.4999C33.2464 228.581 31.086 227.685 29.4925 226.091C27.899 224.498 27.0026 222.337 26.9999 220.084V180.084C27.0026 177.83 27.899 175.67 29.4925 174.077C31.086 172.483 33.2464 171.587 35.4999 171.584H119.5C121.753 171.587 123.914 172.483 125.507 174.077C127.101 175.67 127.997 177.83 128 180.084V220.084C127.997 222.337 127.101 224.498 125.507 226.091C123.914 227.685 121.753 228.581 119.5 228.584V228.584Z" fill="#D1D5DB"/>
<path d="M113.5 264.084H41.5001C39.3783 264.084 37.3435 263.242 35.8432 261.741C34.3429 260.241 33.5001 258.206 33.5001 256.084C33.5001 253.963 34.3429 251.928 35.8432 250.427C37.3435 248.927 39.3783 248.084 41.5001 248.084H113.5C115.622 248.084 117.657 248.927 119.157 250.427C120.657 251.928 121.5 253.963 121.5 256.084C121.5 258.206 120.657 260.241 119.157 261.741C117.657 263.242 115.622 264.084 113.5 264.084Z" fill="#D1D5DB"/>
<path d="M150 106C162.702 106 173 95.7025 173 83C173 70.2975 162.702 60 150 60C137.297 60 127 70.2975 127 83C127 95.7025 137.297 106 150 106Z" fill="#374151"/>
<path d="M147.833 91.5357C147.314 91.5367 146.809 91.3689 146.394 91.0578L146.369 91.0384L140.95 86.8898C140.698 86.698 140.486 86.4583 140.327 86.1844C140.167 85.9105 140.064 85.6079 140.021 85.2939C139.979 84.9798 140 84.6606 140.081 84.3544C140.163 84.0482 140.304 83.7611 140.496 83.5096C140.689 83.2581 140.93 83.0471 141.204 82.8887C141.478 82.7303 141.781 82.6277 142.096 82.5866C142.41 82.5456 142.729 82.567 143.035 82.6496C143.341 82.7322 143.627 82.8744 143.878 83.068L147.388 85.7592L155.682 74.9425C155.874 74.6917 156.114 74.4811 156.388 74.3229C156.662 74.1648 156.964 74.0621 157.277 74.0207C157.591 73.9793 157.909 74.0001 158.215 74.0818C158.52 74.1635 158.806 74.3046 159.057 74.497L159.006 74.567L159.059 74.498C159.565 74.887 159.896 75.4607 159.979 76.0935C160.063 76.7262 159.892 77.3663 159.504 77.8732L149.748 90.5962C149.523 90.8894 149.233 91.1266 148.9 91.2896C148.568 91.4525 148.203 91.5367 147.833 91.5357Z" fill="white"/>
</svg>
